M48
; DRILL file {KiCad (5.1.9)-1} date 08/06/21 01:24:15
; FORMAT={-:-/ absolute / inch / decimal}
; #@! TF.CreationDate,2021-08-06T01:24:15+02:00
; #@! TF.GenerationSoftware,Kicad,Pcbnew,(5.1.9)-1
; #@! TF.FileFunction,Plated,1,2,PTH
FMAT,2
INCH
T1C0.0430
T2C0.0500
T3C0.0866
%
G90
G05
T1
X2.7709Y-1.4874
X2.7709Y-1.5874
X2.7709Y-1.6874
X2.7709Y-1.7874
X2.7709Y-1.8874
X2.7709Y-1.9874
X2.7709Y-2.0874
X2.7709Y-2.1874
X2.7709Y-2.2874
X2.7709Y-2.3874
X2.7709Y-2.4874
X2.7709Y-2.5874
X3.3709Y-1.4874
X3.3709Y-1.5874
X3.3709Y-1.6874
X3.3709Y-1.7874
X3.3709Y-1.8874
X3.3709Y-1.9874
X3.3709Y-2.0874
X3.3709Y-2.1874
X3.3709Y-2.2874
X3.3709Y-2.3874
X3.3709Y-2.4874
X3.3709Y-2.5874
T2
X1.4567Y-1.8031
X1.4567Y-2.4724
X1.4567Y-3.1417
X1.4567Y-3.811
X1.6535Y-1.8858
X1.6535Y-2.5551
X1.6535Y-3.2244
X1.6535Y-3.8937
X2.1654Y-1.8031
X2.1654Y-2.4724
X2.1654Y-3.1417
X2.1654Y-3.811
X2.3622Y-1.8858
X2.3622Y-2.5551
X2.3622Y-3.2244
X2.3622Y-3.8937
X2.874Y-1.8031
X2.874Y-2.4724
X2.874Y-3.1417
X2.874Y-3.811
X3.0709Y-1.8858
X3.0709Y-2.5551
X3.0709Y-3.2244
X3.0709Y-3.8937
X3.5827Y-1.8031
X3.5827Y-2.4724
X3.5827Y-3.1417
X3.5827Y-3.811
X3.7795Y-1.8858
X3.7795Y-2.5551
X3.7795Y-3.2244
X3.7795Y-3.8937
X4.2913Y-1.8031
X4.2913Y-2.4724
X4.2913Y-3.1417
X4.2913Y-3.811
X4.4882Y-1.8858
X4.4882Y-2.5551
X4.4882Y-3.2244
X4.4882Y-3.8937
X5.0Y-1.8031
X5.0Y-2.4724
X5.0Y-3.1417
X5.1969Y-1.8858
X5.1969Y-2.5551
X5.1969Y-3.2244
X5.3543Y-3.811
X5.5512Y-3.8937
X5.7087Y-1.8031
X5.7087Y-2.4724
X5.7087Y-3.1417
X5.9055Y-1.8858
X5.9055Y-2.5551
X5.9055Y-3.2244
X6.4173Y-1.8031
X6.4173Y-2.4724
X6.4173Y-3.1417
X6.4173Y-3.811
X6.6142Y-1.8858
X6.6142Y-2.5551
X6.6142Y-3.2244
X6.6142Y-3.8937
X7.126Y-1.8031
X7.126Y-2.4724
X7.126Y-3.1417
X7.126Y-3.811
X7.3228Y-1.8858
X7.3228Y-2.5551
X7.3228Y-3.2244
X7.3228Y-3.8937
X7.8346Y-1.8031
X7.8346Y-2.4724
X7.8346Y-3.1417
X7.8346Y-3.811
X8.0315Y-1.8858
X8.0315Y-2.5551
X8.0315Y-3.2244
X8.0315Y-3.8937
X8.5433Y-1.8031
X8.5433Y-2.4724
X8.5433Y-3.1417
X8.5433Y-3.811
X8.7402Y-1.8858
X8.7402Y-2.5551
X8.7402Y-3.2244
X8.7402Y-3.8937
X9.252Y-1.8031
X9.252Y-2.4724
X9.252Y-3.1417
X9.252Y-3.811
X9.4488Y-1.8858
X9.4488Y-2.5551
X9.4488Y-3.2244
X9.4488Y-3.8937
T3
X2.0079Y-1.9882
X2.0079Y-3.3268
X4.1339Y-1.9882
X4.1339Y-3.3268
X5.5512Y-2.6575
X6.9685Y-1.9882
X6.9685Y-3.3268
X9.0945Y-1.9882
X9.0945Y-3.3268
T0
M30
