M48
; DRILL file {KiCad (5.1.9)-1} date 08/02/21 02:45:56
; FORMAT={-:-/ absolute / inch / decimal}
; #@! TF.CreationDate,2021-08-02T02:45:56+02:00
; #@! TF.GenerationSoftware,Kicad,Pcbnew,(5.1.9)-1
FMAT,2
INCH
T1C0.0430
T2C0.0500
T3C0.0866
T4C0.0390
T5C0.0670
T6C0.0866
T7C0.1350
%
G90
G05
T1
X2.7709Y-1.4874
X2.7709Y-1.5874
X2.7709Y-1.6874
X2.7709Y-1.7874
X2.7709Y-1.8874
X2.7709Y-1.9874
X2.7709Y-2.0874
X2.7709Y-2.1874
X2.7709Y-2.2874
X2.7709Y-2.3874
X2.7709Y-2.4874
X2.7709Y-2.5874
X3.3709Y-1.4874
X3.3709Y-1.5874
X3.3709Y-1.6874
X3.3709Y-1.7874
X3.3709Y-1.8874
X3.3709Y-1.9874
X3.3709Y-2.0874
X3.3709Y-2.1874
X3.3709Y-2.2874
X3.3709Y-2.3874
X3.3709Y-2.4874
X3.3709Y-2.5874
T2
X1.4567Y-1.8031
X1.4567Y-2.4724
X1.4567Y-3.1417
X1.4567Y-3.811
X1.6535Y-1.8858
X1.6535Y-2.5551
X1.6535Y-3.2244
X1.6535Y-3.8937
X2.1654Y-1.8031
X2.1654Y-2.4724
X2.1654Y-3.1417
X2.1654Y-3.811
X2.3622Y-1.8858
X2.3622Y-2.5551
X2.3622Y-3.2244
X2.3622Y-3.8937
X2.874Y-1.8031
X2.874Y-2.4724
X2.874Y-3.1417
X2.874Y-3.811
X3.0709Y-1.8858
X3.0709Y-2.5551
X3.0709Y-3.2244
X3.0709Y-3.8937
X3.5827Y-1.8031
X3.5827Y-2.4724
X3.5827Y-3.1417
X3.5827Y-3.811
X3.7795Y-1.8858
X3.7795Y-2.5551
X3.7795Y-3.2244
X3.7795Y-3.8937
X4.2913Y-1.8031
X4.2913Y-2.4724
X4.2913Y-3.1417
X4.2913Y-3.811
X4.4882Y-1.8858
X4.4882Y-2.5551
X4.4882Y-3.2244
X4.4882Y-3.8937
X5.0Y-1.8031
X5.0Y-2.4724
X5.0Y-3.1417
X5.1969Y-1.8858
X5.1969Y-2.5551
X5.1969Y-3.2244
X5.3543Y-3.811
X5.5512Y-3.8937
X5.7087Y-1.8031
X5.7087Y-2.4724
X5.7087Y-3.1417
X5.9055Y-1.8858
X5.9055Y-2.5551
X5.9055Y-3.2244
X6.4173Y-1.8031
X6.4173Y-2.4724
X6.4173Y-3.1417
X6.4173Y-3.811
X6.6142Y-1.8858
X6.6142Y-2.5551
X6.6142Y-3.2244
X6.6142Y-3.8937
X7.126Y-1.8031
X7.126Y-2.4724
X7.126Y-3.1417
X7.126Y-3.811
X7.3228Y-1.8858
X7.3228Y-2.5551
X7.3228Y-3.2244
X7.3228Y-3.8937
X7.8346Y-1.8031
X7.8346Y-2.4724
X7.8346Y-3.1417
X7.8346Y-3.811
X8.0315Y-1.8858
X8.0315Y-2.5551
X8.0315Y-3.2244
X8.0315Y-3.8937
X8.5433Y-1.8031
X8.5433Y-2.4724
X8.5433Y-3.1417
X8.5433Y-3.811
X8.7402Y-1.8858
X8.7402Y-2.5551
X8.7402Y-3.2244
X8.7402Y-3.8937
X9.252Y-1.8031
X9.252Y-2.4724
X9.252Y-3.1417
X9.252Y-3.811
X9.4488Y-1.8858
X9.4488Y-2.5551
X9.4488Y-3.2244
X9.4488Y-3.8937
T3
X2.0079Y-1.9882
X2.0079Y-3.3268
X4.1339Y-1.9882
X4.1339Y-3.3268
X5.5512Y-2.6575
X6.9685Y-1.9882
X6.9685Y-3.3268
X9.0945Y-1.9882
X9.0945Y-3.3268
T4
X1.8591Y-1.4882
X1.8591Y-2.1575
X1.8591Y-2.8268
X1.8591Y-3.4961
X2.5677Y-1.4882
X2.5677Y-2.1575
X2.5677Y-2.8268
X2.5677Y-3.4961
X3.2764Y-1.4882
X3.2764Y-2.1575
X3.2764Y-2.8268
X3.2764Y-3.4961
X3.985Y-1.4882
X3.985Y-2.1575
X3.985Y-2.8268
X3.985Y-3.4961
X4.6937Y-1.4882
X4.6937Y-2.1575
X4.6937Y-2.8268
X4.6937Y-3.4961
X5.4024Y-1.4882
X5.4024Y-2.1575
X5.4024Y-2.8268
X5.7567Y-3.4961
X6.111Y-1.4882
X6.111Y-2.1575
X6.111Y-2.8268
X6.8197Y-1.4882
X6.8197Y-2.1575
X6.8197Y-2.8268
X6.8197Y-3.4961
X7.5283Y-1.4882
X7.5283Y-2.1575
X7.5283Y-2.8268
X7.5283Y-3.4961
X8.237Y-1.4882
X8.237Y-2.1575
X8.237Y-2.8268
X8.237Y-3.4961
X8.9457Y-1.4882
X8.9457Y-2.1575
X8.9457Y-2.8268
X8.9457Y-3.4961
X9.6543Y-1.4882
X9.6543Y-2.1575
X9.6543Y-2.8268
X9.6543Y-3.4961
T5
X1.437Y-1.6535
X1.437Y-2.3228
X1.437Y-2.9921
X1.437Y-3.6614
X1.8701Y-1.6535
X1.8701Y-2.3228
X1.8701Y-2.9921
X1.8701Y-3.6614
X2.1457Y-1.6535
X2.1457Y-2.3228
X2.1457Y-2.9921
X2.1457Y-3.6614
X2.5787Y-1.6535
X2.5787Y-2.3228
X2.5787Y-2.9921
X2.5787Y-3.6614
X2.8543Y-1.6535
X2.8543Y-2.3228
X2.8543Y-2.9921
X2.8543Y-3.6614
X3.2874Y-1.6535
X3.2874Y-2.3228
X3.2874Y-2.9921
X3.2874Y-3.6614
X3.563Y-1.6535
X3.563Y-2.3228
X3.563Y-2.9921
X3.563Y-3.6614
X3.9961Y-1.6535
X3.9961Y-2.3228
X3.9961Y-2.9921
X3.9961Y-3.6614
X4.2717Y-1.6535
X4.2717Y-2.3228
X4.2717Y-2.9921
X4.2717Y-3.6614
X4.7047Y-1.6535
X4.7047Y-2.3228
X4.7047Y-2.9921
X4.7047Y-3.6614
X4.9803Y-1.6535
X4.9803Y-2.3228
X4.9803Y-2.9921
X5.3346Y-3.6614
X5.4134Y-1.6535
X5.4134Y-2.3228
X5.4134Y-2.9921
X5.689Y-1.6535
X5.689Y-2.3228
X5.689Y-2.9921
X5.7677Y-3.6614
X6.122Y-1.6535
X6.122Y-2.3228
X6.122Y-2.9921
X6.3976Y-1.6535
X6.3976Y-2.3228
X6.3976Y-2.9921
X6.3976Y-3.6614
X6.8307Y-1.6535
X6.8307Y-2.3228
X6.8307Y-2.9921
X6.8307Y-3.6614
X7.1063Y-1.6535
X7.1063Y-2.3228
X7.1063Y-2.9921
X7.1063Y-3.6614
X7.5394Y-1.6535
X7.5394Y-2.3228
X7.5394Y-2.9921
X7.5394Y-3.6614
X7.815Y-1.6535
X7.815Y-2.3228
X7.815Y-2.9921
X7.815Y-3.6614
X8.248Y-1.6535
X8.248Y-2.3228
X8.248Y-2.9921
X8.248Y-3.6614
X8.5236Y-1.6535
X8.5236Y-2.3228
X8.5236Y-2.9921
X8.5236Y-3.6614
X8.9567Y-1.6535
X8.9567Y-2.3228
X8.9567Y-2.9921
X8.9567Y-3.6614
X9.2323Y-1.6535
X9.2323Y-2.3228
X9.2323Y-2.9921
X9.2323Y-3.6614
X9.6654Y-1.6535
X9.6654Y-2.3228
X9.6654Y-2.9921
X9.6654Y-3.6614
T6
X5.0591Y-3.5236
X5.0591Y-3.7992
X6.0433Y-3.5236
X6.0433Y-3.7992
T7
X1.6535Y-1.6535
X1.6535Y-2.3228
X1.6535Y-2.9921
X1.6535Y-3.6614
X2.3622Y-1.6535
X2.3622Y-2.3228
X2.3622Y-2.9921
X2.3622Y-3.6614
X3.0709Y-1.6535
X3.0709Y-2.3228
X3.0709Y-2.9921
X3.0709Y-3.6614
X3.7795Y-1.6535
X3.7795Y-2.3228
X3.7795Y-2.9921
X3.7795Y-3.6614
X4.4882Y-1.6535
X4.4882Y-2.3228
X4.4882Y-2.9921
X4.4882Y-3.6614
X5.1969Y-1.6535
X5.1969Y-2.3228
X5.1969Y-2.9921
X5.5512Y-3.6614
X5.9055Y-1.6535
X5.9055Y-2.3228
X5.9055Y-2.9921
X6.6142Y-1.6535
X6.6142Y-2.3228
X6.6142Y-2.9921
X6.6142Y-3.6614
X7.3228Y-1.6535
X7.3228Y-2.3228
X7.3228Y-2.9921
X7.3228Y-3.6614
X8.0315Y-1.6535
X8.0315Y-2.3228
X8.0315Y-2.9921
X8.0315Y-3.6614
X8.7402Y-1.6535
X8.7402Y-2.3228
X8.7402Y-2.9921
X8.7402Y-3.6614
X9.4488Y-1.6535
X9.4488Y-2.3228
X9.4488Y-2.9921
X9.4488Y-3.6614
T0
M30
