%TF.GenerationSoftware,KiCad,Pcbnew,(5.1.9)-1*%
%TF.CreationDate,2021-08-06T01:24:01+02:00*%
%TF.ProjectId,rooster-pcb,726f6f73-7465-4722-9d70-63622e6b6963,rev?*%
%TF.SameCoordinates,Original*%
%TF.FileFunction,Copper,L2,Bot*%
%TF.FilePolarity,Positive*%
%FSLAX46Y46*%
G04 Gerber Fmt 4.6, Leading zero omitted, Abs format (unit mm)*
G04 Created by KiCad (PCBNEW (5.1.9)-1) date 2021-08-06 01:24:01*
%MOMM*%
%LPD*%
G01*
G04 APERTURE LIST*
%TA.AperFunction,ComponentPad*%
%ADD10C,2.032000*%
%TD*%
%TA.AperFunction,SMDPad,CuDef*%
%ADD11R,1.200000X0.900000*%
%TD*%
%TA.AperFunction,ComponentPad*%
%ADD12C,4.400000*%
%TD*%
%TA.AperFunction,ComponentPad*%
%ADD13C,1.752600*%
%TD*%
%TA.AperFunction,ComponentPad*%
%ADD14R,1.752600X1.752600*%
%TD*%
%TA.AperFunction,SMDPad,CuDef*%
%ADD15R,0.900000X1.200000*%
%TD*%
%TA.AperFunction,Conductor*%
%ADD16C,0.250000*%
%TD*%
G04 APERTURE END LIST*
D10*
%TO.P,SW1-5,1*%
%TO.N,Net-(D1-5-Pad2)*%
X132000000Y-64900000D03*
%TO.P,SW1-5,2*%
%TO.N,COL5*%
X127000000Y-62800000D03*
%TD*%
%TO.P,SW1-8,1*%
%TO.N,Net-(D1-8-Pad2)*%
X186000000Y-64900000D03*
%TO.P,SW1-8,2*%
%TO.N,COL8*%
X181000000Y-62800000D03*
%TD*%
%TO.P,SW2-10,1*%
%TO.N,Net-(D2-10-Pad2)*%
X222000000Y-81900000D03*
%TO.P,SW2-10,2*%
%TO.N,COL10*%
X217000000Y-79800000D03*
%TD*%
D11*
%TO.P,D0-0,2*%
%TO.N,Net-(D0-0-Pad2)*%
X45500000Y-47900000D03*
%TO.P,D0-0,1*%
%TO.N,ROW0*%
X45500000Y-44600000D03*
%TD*%
D12*
%TO.P,M7,1*%
%TO.N,N/C*%
X177000000Y-84500000D03*
%TD*%
%TO.P,M3,1*%
%TO.N,N/C*%
X177000000Y-50500000D03*
%TD*%
%TO.P,M6,1*%
%TO.N,N/C*%
X105000000Y-84500000D03*
%TD*%
%TO.P,M2,1*%
%TO.N,N/C*%
X105000000Y-50500000D03*
%TD*%
%TO.P,M9,1*%
%TO.N,N/C*%
X141000000Y-67500000D03*
%TD*%
%TO.P,M8,1*%
%TO.N,N/C*%
X231000000Y-84500000D03*
%TD*%
%TO.P,M4,1*%
%TO.N,N/C*%
X231000000Y-50500000D03*
%TD*%
%TO.P,M5,1*%
%TO.N,N/C*%
X51000000Y-84500000D03*
%TD*%
%TO.P,M1,1*%
%TO.N,N/C*%
X51000000Y-50500000D03*
%TD*%
D13*
%TO.P,U1,24*%
%TO.N,Net-(U1-Pad24)*%
X85620000Y-37780000D03*
%TO.P,U1,12*%
%TO.N,ROW3*%
X70380000Y-65720000D03*
%TO.P,U1,23*%
%TO.N,GND*%
X85620000Y-40320000D03*
%TO.P,U1,22*%
%TO.N,Net-(U1-Pad22)*%
X85620000Y-42860000D03*
%TO.P,U1,21*%
%TO.N,+5V*%
X85620000Y-45400000D03*
%TO.P,U1,20*%
%TO.N,COL11*%
X85620000Y-47940000D03*
%TO.P,U1,19*%
%TO.N,COL10*%
X85620000Y-50480000D03*
%TO.P,U1,18*%
%TO.N,COL9*%
X85620000Y-53020000D03*
%TO.P,U1,17*%
%TO.N,COL8*%
X85620000Y-55560000D03*
%TO.P,U1,16*%
%TO.N,COL7*%
X85620000Y-58100000D03*
%TO.P,U1,15*%
%TO.N,COL6*%
X85620000Y-60640000D03*
%TO.P,U1,14*%
%TO.N,COL5*%
X85620000Y-63180000D03*
%TO.P,U1,13*%
%TO.N,COL4*%
X85620000Y-65720000D03*
%TO.P,U1,11*%
%TO.N,ROW2*%
X70380000Y-63180000D03*
%TO.P,U1,10*%
%TO.N,ROW1*%
X70380000Y-60640000D03*
%TO.P,U1,9*%
%TO.N,ROW0*%
X70380000Y-58100000D03*
%TO.P,U1,8*%
%TO.N,COL3*%
X70380000Y-55560000D03*
%TO.P,U1,7*%
%TO.N,COL2*%
X70380000Y-53020000D03*
%TO.P,U1,6*%
%TO.N,COL1*%
X70380000Y-50480000D03*
%TO.P,U1,5*%
%TO.N,COL0*%
X70380000Y-47940000D03*
%TO.P,U1,4*%
%TO.N,Net-(U1-Pad4)*%
X70380000Y-45400000D03*
%TO.P,U1,3*%
%TO.N,Net-(U1-Pad3)*%
X70380000Y-42860000D03*
%TO.P,U1,2*%
%TO.N,Net-(U1-Pad2)*%
X70380000Y-40320000D03*
D14*
%TO.P,U1,1*%
%TO.N,Net-(U1-Pad1)*%
X70380000Y-37780000D03*
%TD*%
D10*
%TO.P,SW3-11,1*%
%TO.N,Net-(D3-11-Pad2)*%
X240000000Y-98900000D03*
%TO.P,SW3-11,2*%
%TO.N,COL11*%
X235000000Y-96800000D03*
%TD*%
%TO.P,SW3-10,1*%
%TO.N,Net-(D3-10-Pad2)*%
X222000000Y-98900000D03*
%TO.P,SW3-10,2*%
%TO.N,COL10*%
X217000000Y-96800000D03*
%TD*%
%TO.P,SW3-9,1*%
%TO.N,Net-(D3-9-Pad2)*%
X204000000Y-98900000D03*
%TO.P,SW3-9,2*%
%TO.N,COL9*%
X199000000Y-96800000D03*
%TD*%
%TO.P,SW3-8,1*%
%TO.N,Net-(D3-8-Pad2)*%
X186000000Y-98900000D03*
%TO.P,SW3-8,2*%
%TO.N,COL8*%
X181000000Y-96800000D03*
%TD*%
%TO.P,SW3-7,1*%
%TO.N,Net-(D3-7-Pad2)*%
X168000000Y-98900000D03*
%TO.P,SW3-7,2*%
%TO.N,COL7*%
X163000000Y-96800000D03*
%TD*%
%TO.P,SW3-5,1*%
%TO.N,Net-(D3-5-Pad2)*%
X141000000Y-98900000D03*
%TO.P,SW3-5,2*%
%TO.N,COL5*%
X136000000Y-96800000D03*
%TD*%
%TO.P,SW3-4,1*%
%TO.N,Net-(D3-4-Pad2)*%
X114000000Y-98900000D03*
%TO.P,SW3-4,2*%
%TO.N,COL4*%
X109000000Y-96800000D03*
%TD*%
%TO.P,SW3-3,1*%
%TO.N,Net-(D3-3-Pad2)*%
X96000000Y-98900000D03*
%TO.P,SW3-3,2*%
%TO.N,COL3*%
X91000000Y-96800000D03*
%TD*%
%TO.P,SW3-2,1*%
%TO.N,Net-(D3-2-Pad2)*%
X78000000Y-98900000D03*
%TO.P,SW3-2,2*%
%TO.N,COL2*%
X73000000Y-96800000D03*
%TD*%
%TO.P,SW3-1,1*%
%TO.N,Net-(D3-1-Pad2)*%
X60000000Y-98900000D03*
%TO.P,SW3-1,2*%
%TO.N,COL1*%
X55000000Y-96800000D03*
%TD*%
%TO.P,SW3-0,1*%
%TO.N,Net-(D3-0-Pad2)*%
X42000000Y-98900000D03*
%TO.P,SW3-0,2*%
%TO.N,COL0*%
X37000000Y-96800000D03*
%TD*%
%TO.P,SW2-11,1*%
%TO.N,Net-(D2-11-Pad2)*%
X240000000Y-81900000D03*
%TO.P,SW2-11,2*%
%TO.N,COL11*%
X235000000Y-79800000D03*
%TD*%
%TO.P,SW2-9,1*%
%TO.N,Net-(D2-9-Pad2)*%
X204000000Y-81900000D03*
%TO.P,SW2-9,2*%
%TO.N,COL9*%
X199000000Y-79800000D03*
%TD*%
%TO.P,SW2-8,1*%
%TO.N,Net-(D2-8-Pad2)*%
X186000000Y-81900000D03*
%TO.P,SW2-8,2*%
%TO.N,COL8*%
X181000000Y-79800000D03*
%TD*%
%TO.P,SW2-7,1*%
%TO.N,Net-(D2-7-Pad2)*%
X168000000Y-81900000D03*
%TO.P,SW2-7,2*%
%TO.N,COL7*%
X163000000Y-79800000D03*
%TD*%
%TO.P,SW2-6,1*%
%TO.N,Net-(D2-6-Pad2)*%
X150000000Y-81900000D03*
%TO.P,SW2-6,2*%
%TO.N,COL6*%
X145000000Y-79800000D03*
%TD*%
%TO.P,SW2-5,1*%
%TO.N,Net-(D2-5-Pad2)*%
X132000000Y-81900000D03*
%TO.P,SW2-5,2*%
%TO.N,COL5*%
X127000000Y-79800000D03*
%TD*%
%TO.P,SW2-4,1*%
%TO.N,Net-(D2-4-Pad2)*%
X114000000Y-81900000D03*
%TO.P,SW2-4,2*%
%TO.N,COL4*%
X109000000Y-79800000D03*
%TD*%
%TO.P,SW2-3,1*%
%TO.N,Net-(D2-3-Pad2)*%
X96000000Y-81900000D03*
%TO.P,SW2-3,2*%
%TO.N,COL3*%
X91000000Y-79800000D03*
%TD*%
%TO.P,SW2-2,1*%
%TO.N,Net-(D2-2-Pad2)*%
X78000000Y-81900000D03*
%TO.P,SW2-2,2*%
%TO.N,COL2*%
X73000000Y-79800000D03*
%TD*%
%TO.P,SW2-1,1*%
%TO.N,Net-(D2-1-Pad2)*%
X60000000Y-81900000D03*
%TO.P,SW2-1,2*%
%TO.N,COL1*%
X55000000Y-79800000D03*
%TD*%
%TO.P,SW2-0,1*%
%TO.N,Net-(D2-0-Pad2)*%
X42000000Y-81900000D03*
%TO.P,SW2-0,2*%
%TO.N,COL0*%
X37000000Y-79800000D03*
%TD*%
%TO.P,SW1-11,1*%
%TO.N,Net-(D1-11-Pad2)*%
X240000000Y-64900000D03*
%TO.P,SW1-11,2*%
%TO.N,COL11*%
X235000000Y-62800000D03*
%TD*%
%TO.P,SW1-10,1*%
%TO.N,Net-(D1-10-Pad2)*%
X222000000Y-64900000D03*
%TO.P,SW1-10,2*%
%TO.N,COL10*%
X217000000Y-62800000D03*
%TD*%
%TO.P,SW1-9,1*%
%TO.N,Net-(D1-9-Pad2)*%
X204000000Y-64900000D03*
%TO.P,SW1-9,2*%
%TO.N,COL9*%
X199000000Y-62800000D03*
%TD*%
%TO.P,SW1-7,1*%
%TO.N,Net-(D1-7-Pad2)*%
X168000000Y-64900000D03*
%TO.P,SW1-7,2*%
%TO.N,COL7*%
X163000000Y-62800000D03*
%TD*%
%TO.P,SW1-6,1*%
%TO.N,Net-(D1-6-Pad2)*%
X150000000Y-64900000D03*
%TO.P,SW1-6,2*%
%TO.N,COL6*%
X145000000Y-62800000D03*
%TD*%
%TO.P,SW1-4,1*%
%TO.N,Net-(D1-4-Pad2)*%
X114000000Y-64900000D03*
%TO.P,SW1-4,2*%
%TO.N,COL4*%
X109000000Y-62800000D03*
%TD*%
%TO.P,SW1-3,1*%
%TO.N,Net-(D1-3-Pad2)*%
X96000000Y-64900000D03*
%TO.P,SW1-3,2*%
%TO.N,COL3*%
X91000000Y-62800000D03*
%TD*%
%TO.P,SW1-2,1*%
%TO.N,Net-(D1-2-Pad2)*%
X78000000Y-64900000D03*
%TO.P,SW1-2,2*%
%TO.N,COL2*%
X73000000Y-62800000D03*
%TD*%
%TO.P,SW1-1,1*%
%TO.N,Net-(D1-1-Pad2)*%
X60000000Y-64900000D03*
%TO.P,SW1-1,2*%
%TO.N,COL1*%
X55000000Y-62800000D03*
%TD*%
%TO.P,SW1-0,1*%
%TO.N,Net-(D1-0-Pad2)*%
X42000000Y-64900000D03*
%TO.P,SW1-0,2*%
%TO.N,COL0*%
X37000000Y-62800000D03*
%TD*%
%TO.P,SW0-11,1*%
%TO.N,Net-(D0-11-Pad2)*%
X240000000Y-47900000D03*
%TO.P,SW0-11,2*%
%TO.N,COL11*%
X235000000Y-45800000D03*
%TD*%
%TO.P,SW0-10,1*%
%TO.N,Net-(D0-10-Pad2)*%
X222000000Y-47900000D03*
%TO.P,SW0-10,2*%
%TO.N,COL10*%
X217000000Y-45800000D03*
%TD*%
%TO.P,SW0-9,1*%
%TO.N,Net-(D0-9-Pad2)*%
X204000000Y-47900000D03*
%TO.P,SW0-9,2*%
%TO.N,COL9*%
X199000000Y-45800000D03*
%TD*%
%TO.P,SW0-8,1*%
%TO.N,Net-(D0-8-Pad2)*%
X186000000Y-47900000D03*
%TO.P,SW0-8,2*%
%TO.N,COL8*%
X181000000Y-45800000D03*
%TD*%
%TO.P,SW0-7,1*%
%TO.N,Net-(D0-7-Pad2)*%
X168000000Y-47900000D03*
%TO.P,SW0-7,2*%
%TO.N,COL7*%
X163000000Y-45800000D03*
%TD*%
%TO.P,SW0-6,1*%
%TO.N,Net-(D0-6-Pad2)*%
X150000000Y-47900000D03*
%TO.P,SW0-6,2*%
%TO.N,COL6*%
X145000000Y-45800000D03*
%TD*%
%TO.P,SW0-5,1*%
%TO.N,Net-(D0-5-Pad2)*%
X132000000Y-47900000D03*
%TO.P,SW0-5,2*%
%TO.N,COL5*%
X127000000Y-45800000D03*
%TD*%
%TO.P,SW0-4,1*%
%TO.N,Net-(D0-4-Pad2)*%
X114000000Y-47900000D03*
%TO.P,SW0-4,2*%
%TO.N,COL4*%
X109000000Y-45800000D03*
%TD*%
%TO.P,SW0-3,2*%
%TO.N,COL3*%
X91000000Y-45800000D03*
%TO.P,SW0-3,1*%
%TO.N,Net-(D0-3-Pad2)*%
X96000000Y-47900000D03*
%TD*%
%TO.P,SW0-2,1*%
%TO.N,Net-(D0-2-Pad2)*%
X78000000Y-47900000D03*
%TO.P,SW0-2,2*%
%TO.N,COL2*%
X73000000Y-45800000D03*
%TD*%
%TO.P,SW0-1,1*%
%TO.N,Net-(D0-1-Pad2)*%
X60000000Y-47900000D03*
%TO.P,SW0-1,2*%
%TO.N,COL1*%
X55000000Y-45800000D03*
%TD*%
%TO.P,SW0-0,1*%
%TO.N,Net-(D0-0-Pad2)*%
X42000000Y-47900000D03*
%TO.P,SW0-0,2*%
%TO.N,COL0*%
X37000000Y-45800000D03*
%TD*%
D11*
%TO.P,D3-11,2*%
%TO.N,Net-(D3-11-Pad2)*%
X243500000Y-98900000D03*
%TO.P,D3-11,1*%
%TO.N,ROW3*%
X243500000Y-95600000D03*
%TD*%
%TO.P,D3-10,2*%
%TO.N,Net-(D3-10-Pad2)*%
X225500000Y-98900000D03*
%TO.P,D3-10,1*%
%TO.N,ROW3*%
X225500000Y-95600000D03*
%TD*%
%TO.P,D3-9,2*%
%TO.N,Net-(D3-9-Pad2)*%
X207500000Y-98900000D03*
%TO.P,D3-9,1*%
%TO.N,ROW3*%
X207500000Y-95600000D03*
%TD*%
%TO.P,D3-8,2*%
%TO.N,Net-(D3-8-Pad2)*%
X189500000Y-98900000D03*
%TO.P,D3-8,1*%
%TO.N,ROW3*%
X189500000Y-95600000D03*
%TD*%
%TO.P,D3-7,2*%
%TO.N,Net-(D3-7-Pad2)*%
X171500000Y-98900000D03*
%TO.P,D3-7,1*%
%TO.N,ROW3*%
X171500000Y-95600000D03*
%TD*%
%TO.P,D3-5,2*%
%TO.N,Net-(D3-5-Pad2)*%
X144500000Y-98900000D03*
%TO.P,D3-5,1*%
%TO.N,ROW3*%
X144500000Y-95600000D03*
%TD*%
%TO.P,D3-4,2*%
%TO.N,Net-(D3-4-Pad2)*%
X117500000Y-98900000D03*
%TO.P,D3-4,1*%
%TO.N,ROW3*%
X117500000Y-95600000D03*
%TD*%
%TO.P,D3-3,2*%
%TO.N,Net-(D3-3-Pad2)*%
X99500000Y-98900000D03*
%TO.P,D3-3,1*%
%TO.N,ROW3*%
X99500000Y-95600000D03*
%TD*%
%TO.P,D3-2,2*%
%TO.N,Net-(D3-2-Pad2)*%
X81500000Y-98900000D03*
%TO.P,D3-2,1*%
%TO.N,ROW3*%
X81500000Y-95600000D03*
%TD*%
%TO.P,D3-1,2*%
%TO.N,Net-(D3-1-Pad2)*%
X63500000Y-98900000D03*
%TO.P,D3-1,1*%
%TO.N,ROW3*%
X63500000Y-95600000D03*
%TD*%
%TO.P,D3-0,2*%
%TO.N,Net-(D3-0-Pad2)*%
X45250000Y-98900000D03*
%TO.P,D3-0,1*%
%TO.N,ROW3*%
X45250000Y-95600000D03*
%TD*%
%TO.P,D2-11,2*%
%TO.N,Net-(D2-11-Pad2)*%
X243500000Y-81900000D03*
%TO.P,D2-11,1*%
%TO.N,ROW2*%
X243500000Y-78600000D03*
%TD*%
%TO.P,D2-10,2*%
%TO.N,Net-(D2-10-Pad2)*%
X225500000Y-81900000D03*
%TO.P,D2-10,1*%
%TO.N,ROW2*%
X225500000Y-78600000D03*
%TD*%
%TO.P,D2-9,2*%
%TO.N,Net-(D2-9-Pad2)*%
X207500000Y-81900000D03*
%TO.P,D2-9,1*%
%TO.N,ROW2*%
X207500000Y-78600000D03*
%TD*%
%TO.P,D2-8,2*%
%TO.N,Net-(D2-8-Pad2)*%
X189500000Y-81900000D03*
%TO.P,D2-8,1*%
%TO.N,ROW2*%
X189500000Y-78600000D03*
%TD*%
%TO.P,D2-7,2*%
%TO.N,Net-(D2-7-Pad2)*%
X171500000Y-81900000D03*
%TO.P,D2-7,1*%
%TO.N,ROW2*%
X171500000Y-78600000D03*
%TD*%
%TO.P,D2-6,2*%
%TO.N,Net-(D2-6-Pad2)*%
X153500000Y-81900000D03*
%TO.P,D2-6,1*%
%TO.N,ROW2*%
X153500000Y-78600000D03*
%TD*%
%TO.P,D2-5,2*%
%TO.N,Net-(D2-5-Pad2)*%
X135500000Y-81900000D03*
%TO.P,D2-5,1*%
%TO.N,ROW2*%
X135500000Y-78600000D03*
%TD*%
%TO.P,D2-4,2*%
%TO.N,Net-(D2-4-Pad2)*%
X117500000Y-81900000D03*
%TO.P,D2-4,1*%
%TO.N,ROW2*%
X117500000Y-78600000D03*
%TD*%
%TO.P,D2-3,2*%
%TO.N,Net-(D2-3-Pad2)*%
X99500000Y-81900000D03*
%TO.P,D2-3,1*%
%TO.N,ROW2*%
X99500000Y-78600000D03*
%TD*%
%TO.P,D2-2,2*%
%TO.N,Net-(D2-2-Pad2)*%
X81500000Y-81900000D03*
%TO.P,D2-2,1*%
%TO.N,ROW2*%
X81500000Y-78600000D03*
%TD*%
%TO.P,D2-1,2*%
%TO.N,Net-(D2-1-Pad2)*%
X63500000Y-81900000D03*
%TO.P,D2-1,1*%
%TO.N,ROW2*%
X63500000Y-78600000D03*
%TD*%
%TO.P,D2-0,2*%
%TO.N,Net-(D2-0-Pad2)*%
X45500000Y-81900000D03*
%TO.P,D2-0,1*%
%TO.N,ROW2*%
X45500000Y-78600000D03*
%TD*%
%TO.P,D1-11,2*%
%TO.N,Net-(D1-11-Pad2)*%
X243500000Y-64900000D03*
%TO.P,D1-11,1*%
%TO.N,ROW1*%
X243500000Y-61600000D03*
%TD*%
%TO.P,D1-10,2*%
%TO.N,Net-(D1-10-Pad2)*%
X225500000Y-64900000D03*
%TO.P,D1-10,1*%
%TO.N,ROW1*%
X225500000Y-61600000D03*
%TD*%
%TO.P,D1-9,2*%
%TO.N,Net-(D1-9-Pad2)*%
X207500000Y-64900000D03*
%TO.P,D1-9,1*%
%TO.N,ROW1*%
X207500000Y-61600000D03*
%TD*%
%TO.P,D1-8,2*%
%TO.N,Net-(D1-8-Pad2)*%
X189500000Y-64900000D03*
%TO.P,D1-8,1*%
%TO.N,ROW1*%
X189500000Y-61600000D03*
%TD*%
%TO.P,D1-7,2*%
%TO.N,Net-(D1-7-Pad2)*%
X171500000Y-64900000D03*
%TO.P,D1-7,1*%
%TO.N,ROW1*%
X171500000Y-61600000D03*
%TD*%
%TO.P,D1-6,2*%
%TO.N,Net-(D1-6-Pad2)*%
X153500000Y-64900000D03*
%TO.P,D1-6,1*%
%TO.N,ROW1*%
X153500000Y-61600000D03*
%TD*%
%TO.P,D1-5,2*%
%TO.N,Net-(D1-5-Pad2)*%
X135500000Y-64900000D03*
%TO.P,D1-5,1*%
%TO.N,ROW1*%
X135500000Y-61600000D03*
%TD*%
%TO.P,D1-4,2*%
%TO.N,Net-(D1-4-Pad2)*%
X117500000Y-64900000D03*
%TO.P,D1-4,1*%
%TO.N,ROW1*%
X117500000Y-61600000D03*
%TD*%
%TO.P,D1-3,2*%
%TO.N,Net-(D1-3-Pad2)*%
X99500000Y-64900000D03*
%TO.P,D1-3,1*%
%TO.N,ROW1*%
X99500000Y-61600000D03*
%TD*%
D15*
%TO.P,D1-2,2*%
%TO.N,Net-(D1-2-Pad2)*%
X89350000Y-65750000D03*
%TO.P,D1-2,1*%
%TO.N,ROW1*%
X92650000Y-65750000D03*
%TD*%
D11*
%TO.P,D1-1,2*%
%TO.N,Net-(D1-1-Pad2)*%
X63500000Y-64900000D03*
%TO.P,D1-1,1*%
%TO.N,ROW1*%
X63500000Y-61600000D03*
%TD*%
%TO.P,D1-0,2*%
%TO.N,Net-(D1-0-Pad2)*%
X45500000Y-64900000D03*
%TO.P,D1-0,1*%
%TO.N,ROW1*%
X45500000Y-61600000D03*
%TD*%
%TO.P,D0-11,2*%
%TO.N,Net-(D0-11-Pad2)*%
X243500000Y-47900000D03*
%TO.P,D0-11,1*%
%TO.N,ROW0*%
X243500000Y-44600000D03*
%TD*%
%TO.P,D0-10,2*%
%TO.N,Net-(D0-10-Pad2)*%
X225500000Y-47900000D03*
%TO.P,D0-10,1*%
%TO.N,ROW0*%
X225500000Y-44600000D03*
%TD*%
%TO.P,D0-9,2*%
%TO.N,Net-(D0-9-Pad2)*%
X207500000Y-47900000D03*
%TO.P,D0-9,1*%
%TO.N,ROW0*%
X207500000Y-44600000D03*
%TD*%
%TO.P,D0-8,2*%
%TO.N,Net-(D0-8-Pad2)*%
X189500000Y-47900000D03*
%TO.P,D0-8,1*%
%TO.N,ROW0*%
X189500000Y-44600000D03*
%TD*%
%TO.P,D0-7,2*%
%TO.N,Net-(D0-7-Pad2)*%
X171500000Y-47900000D03*
%TO.P,D0-7,1*%
%TO.N,ROW0*%
X171500000Y-44600000D03*
%TD*%
%TO.P,D0-6,2*%
%TO.N,Net-(D0-6-Pad2)*%
X153500000Y-47900000D03*
%TO.P,D0-6,1*%
%TO.N,ROW0*%
X153500000Y-44600000D03*
%TD*%
%TO.P,D0-5,2*%
%TO.N,Net-(D0-5-Pad2)*%
X135500000Y-47900000D03*
%TO.P,D0-5,1*%
%TO.N,ROW0*%
X135500000Y-44600000D03*
%TD*%
%TO.P,D0-4,2*%
%TO.N,Net-(D0-4-Pad2)*%
X117500000Y-47900000D03*
%TO.P,D0-4,1*%
%TO.N,ROW0*%
X117500000Y-44600000D03*
%TD*%
%TO.P,D0-3,2*%
%TO.N,Net-(D0-3-Pad2)*%
X99500000Y-47900000D03*
%TO.P,D0-3,1*%
%TO.N,ROW0*%
X99500000Y-44600000D03*
%TD*%
D15*
%TO.P,D0-2,2*%
%TO.N,Net-(D0-2-Pad2)*%
X89350000Y-37750000D03*
%TO.P,D0-2,1*%
%TO.N,ROW0*%
X92650000Y-37750000D03*
%TD*%
D11*
%TO.P,D0-1,2*%
%TO.N,Net-(D0-1-Pad2)*%
X63500000Y-47900000D03*
%TO.P,D0-1,1*%
%TO.N,ROW0*%
X63500000Y-44600000D03*
%TD*%
D16*
%TO.N,Net-(D0-0-Pad2)*%
X42000000Y-47900000D02*
X45500000Y-47900000D01*
%TO.N,ROW0*%
X57600000Y-44600000D02*
X63500000Y-44600000D01*
X57000000Y-44000000D02*
X57600000Y-44600000D01*
X53000000Y-44000000D02*
X57000000Y-44000000D01*
X52400000Y-44600000D02*
X53000000Y-44000000D01*
X45500000Y-44600000D02*
X52400000Y-44600000D01*
X99500000Y-44600000D02*
X106400000Y-44600000D01*
X106400000Y-44600000D02*
X107000000Y-44000000D01*
X107000000Y-44000000D02*
X111000000Y-44000000D01*
X111600000Y-44600000D02*
X117500000Y-44600000D01*
X111000000Y-44000000D02*
X111600000Y-44600000D01*
X117500000Y-44600000D02*
X124400000Y-44600000D01*
X124400000Y-44600000D02*
X125000000Y-44000000D01*
X125000000Y-44000000D02*
X129000000Y-44000000D01*
X129600000Y-44600000D02*
X135500000Y-44600000D01*
X129000000Y-44000000D02*
X129600000Y-44600000D01*
X135500000Y-44600000D02*
X142400000Y-44600000D01*
X142400000Y-44600000D02*
X143000000Y-44000000D01*
X143000000Y-44000000D02*
X147000000Y-44000000D01*
X147600000Y-44600000D02*
X153500000Y-44600000D01*
X147000000Y-44000000D02*
X147600000Y-44600000D01*
X165600000Y-44600000D02*
X171500000Y-44600000D01*
X165000000Y-44000000D02*
X165600000Y-44600000D01*
X161000000Y-44000000D02*
X165000000Y-44000000D01*
X160400000Y-44600000D02*
X161000000Y-44000000D01*
X153500000Y-44600000D02*
X160400000Y-44600000D01*
X183000000Y-44000000D02*
X183600000Y-44600000D01*
X183600000Y-44600000D02*
X189500000Y-44600000D01*
X179000000Y-44000000D02*
X183000000Y-44000000D01*
X178400000Y-44600000D02*
X179000000Y-44000000D01*
X171500000Y-44600000D02*
X178400000Y-44600000D01*
X201000000Y-44000000D02*
X201600000Y-44600000D01*
X197000000Y-44000000D02*
X201000000Y-44000000D01*
X196400000Y-44600000D02*
X197000000Y-44000000D01*
X201600000Y-44600000D02*
X207500000Y-44600000D01*
X189500000Y-44600000D02*
X196400000Y-44600000D01*
X207500000Y-44600000D02*
X214400000Y-44600000D01*
X214400000Y-44600000D02*
X215000000Y-44000000D01*
X215000000Y-44000000D02*
X219000000Y-44000000D01*
X219600000Y-44600000D02*
X225500000Y-44600000D01*
X219000000Y-44000000D02*
X219600000Y-44600000D01*
X237600000Y-44600000D02*
X243500000Y-44600000D01*
X237000000Y-44000000D02*
X237600000Y-44600000D01*
X233000000Y-44000000D02*
X237000000Y-44000000D01*
X232400000Y-44600000D02*
X233000000Y-44000000D01*
X225500000Y-44600000D02*
X232400000Y-44600000D01*
X94100000Y-44600000D02*
X99500000Y-44600000D01*
X63500000Y-44600000D02*
X64850000Y-44600000D01*
X67000000Y-54720000D02*
X70380000Y-58100000D01*
X67000000Y-47750000D02*
X67000000Y-54720000D01*
X63850000Y-44600000D02*
X67000000Y-47750000D01*
X63500000Y-44600000D02*
X63850000Y-44600000D01*
X92650000Y-36900000D02*
X92650000Y-37750000D01*
X68500000Y-35500000D02*
X91250000Y-35500000D01*
X67500000Y-36500000D02*
X68500000Y-35500000D01*
X91250000Y-35500000D02*
X92650000Y-36900000D01*
X67500000Y-43500000D02*
X67500000Y-36500000D01*
X66400000Y-44600000D02*
X67500000Y-43500000D01*
X63500000Y-44600000D02*
X66400000Y-44600000D01*
X92650000Y-43150000D02*
X94100000Y-44600000D01*
X92650000Y-37750000D02*
X92650000Y-43150000D01*
%TO.N,Net-(D0-1-Pad2)*%
X60000000Y-47900000D02*
X63500000Y-47900000D01*
%TO.N,Net-(D0-2-Pad2)*%
X81250000Y-44650000D02*
X81250000Y-37000000D01*
X78000000Y-47900000D02*
X81250000Y-44650000D01*
X81250000Y-37000000D02*
X82250000Y-36000000D01*
X87600000Y-36000000D02*
X89350000Y-37750000D01*
X82250000Y-36000000D02*
X87600000Y-36000000D01*
%TO.N,Net-(D0-3-Pad2)*%
X96000000Y-47900000D02*
X99500000Y-47900000D01*
%TO.N,Net-(D0-4-Pad2)*%
X114000000Y-47900000D02*
X117500000Y-47900000D01*
%TO.N,Net-(D0-5-Pad2)*%
X132000000Y-47900000D02*
X135500000Y-47900000D01*
%TO.N,Net-(D0-6-Pad2)*%
X150000000Y-47900000D02*
X153500000Y-47900000D01*
%TO.N,Net-(D0-7-Pad2)*%
X168000000Y-47900000D02*
X171500000Y-47900000D01*
%TO.N,Net-(D0-8-Pad2)*%
X186000000Y-47900000D02*
X189500000Y-47900000D01*
%TO.N,Net-(D0-9-Pad2)*%
X204000000Y-47900000D02*
X207500000Y-47900000D01*
%TO.N,Net-(D0-10-Pad2)*%
X222000000Y-47900000D02*
X225500000Y-47900000D01*
%TO.N,Net-(D0-11-Pad2)*%
X240000000Y-47900000D02*
X243500000Y-47900000D01*
%TO.N,Net-(D1-0-Pad2)*%
X42000000Y-64900000D02*
X45500000Y-64900000D01*
%TO.N,ROW1*%
X57600000Y-61600000D02*
X63500000Y-61600000D01*
X57000000Y-61000000D02*
X57600000Y-61600000D01*
X53000000Y-61000000D02*
X57000000Y-61000000D01*
X52400000Y-61600000D02*
X53000000Y-61000000D01*
X45500000Y-61600000D02*
X52400000Y-61600000D01*
X63500000Y-61600000D02*
X66400000Y-61600000D01*
X67360000Y-60640000D02*
X70380000Y-60640000D01*
X66400000Y-61600000D02*
X67360000Y-60640000D01*
X242600000Y-62500000D02*
X243500000Y-61600000D01*
X236500000Y-65000000D02*
X239000000Y-62500000D01*
X233500000Y-65000000D02*
X236500000Y-65000000D01*
X230100000Y-61600000D02*
X233500000Y-65000000D01*
X239000000Y-62500000D02*
X242600000Y-62500000D01*
X225500000Y-61600000D02*
X230100000Y-61600000D01*
X224600000Y-62500000D02*
X225500000Y-61600000D01*
X218500000Y-65000000D02*
X221000000Y-62500000D01*
X221000000Y-62500000D02*
X224600000Y-62500000D01*
X215500000Y-65000000D02*
X218500000Y-65000000D01*
X212100000Y-61600000D02*
X215500000Y-65000000D01*
X207500000Y-61600000D02*
X212100000Y-61600000D01*
X206600000Y-62500000D02*
X207500000Y-61600000D01*
X200500000Y-65000000D02*
X203000000Y-62500000D01*
X203000000Y-62500000D02*
X206600000Y-62500000D01*
X197500000Y-65000000D02*
X200500000Y-65000000D01*
X194100000Y-61600000D02*
X197500000Y-65000000D01*
X189500000Y-61600000D02*
X194100000Y-61600000D01*
X188600000Y-62500000D02*
X189500000Y-61600000D01*
X185000000Y-62500000D02*
X188600000Y-62500000D01*
X182500000Y-65000000D02*
X185000000Y-62500000D01*
X179500000Y-65000000D02*
X182500000Y-65000000D01*
X176100000Y-61600000D02*
X179500000Y-65000000D01*
X171500000Y-61600000D02*
X176100000Y-61600000D01*
X170600000Y-62500000D02*
X171500000Y-61600000D01*
X167000000Y-62500000D02*
X170600000Y-62500000D01*
X164500000Y-65000000D02*
X167000000Y-62500000D01*
X161500000Y-65000000D02*
X164500000Y-65000000D01*
X158100000Y-61600000D02*
X161500000Y-65000000D01*
X153500000Y-61600000D02*
X158100000Y-61600000D01*
X152600000Y-62500000D02*
X153500000Y-61600000D01*
X149000000Y-62500000D02*
X152600000Y-62500000D01*
X146500000Y-65000000D02*
X149000000Y-62500000D01*
X143500000Y-65000000D02*
X146500000Y-65000000D01*
X140100000Y-61600000D02*
X143500000Y-65000000D01*
X135500000Y-61600000D02*
X140100000Y-61600000D01*
X134600000Y-62500000D02*
X135500000Y-61600000D01*
X131000000Y-62500000D02*
X134600000Y-62500000D01*
X128500000Y-65000000D02*
X131000000Y-62500000D01*
X125500000Y-65000000D02*
X128500000Y-65000000D01*
X122100000Y-61600000D02*
X125500000Y-65000000D01*
X117500000Y-61600000D02*
X122100000Y-61600000D01*
X116600000Y-62500000D02*
X117500000Y-61600000D01*
X113000000Y-62500000D02*
X116600000Y-62500000D01*
X110500000Y-65000000D02*
X113000000Y-62500000D01*
X107500000Y-65000000D02*
X110500000Y-65000000D01*
X104100000Y-61600000D02*
X107500000Y-65000000D01*
X99500000Y-61600000D02*
X104100000Y-61600000D01*
X98600000Y-62500000D02*
X99500000Y-61600000D01*
X77750000Y-69750000D02*
X90500000Y-69750000D01*
X75600000Y-67600000D02*
X77750000Y-69750000D01*
X75600000Y-61600000D02*
X75600000Y-67600000D01*
X74640000Y-60640000D02*
X75600000Y-61600000D01*
X70380000Y-60640000D02*
X74640000Y-60640000D01*
X92650000Y-65750000D02*
X92650000Y-64600000D01*
X94750000Y-62500000D02*
X98600000Y-62500000D01*
X92650000Y-64600000D02*
X94750000Y-62500000D01*
X92650000Y-67600000D02*
X90500000Y-69750000D01*
X92650000Y-65750000D02*
X92650000Y-67600000D01*
%TO.N,Net-(D1-1-Pad2)*%
X60000000Y-64900000D02*
X63500000Y-64900000D01*
%TO.N,Net-(D1-2-Pad2)*%
X81600000Y-68500000D02*
X78000000Y-64900000D01*
X88000000Y-68500000D02*
X81600000Y-68500000D01*
X89350000Y-67150000D02*
X88000000Y-68500000D01*
X89350000Y-65750000D02*
X89350000Y-67150000D01*
%TO.N,Net-(D1-3-Pad2)*%
X96000000Y-64900000D02*
X99500000Y-64900000D01*
%TO.N,Net-(D1-4-Pad2)*%
X114000000Y-64900000D02*
X117500000Y-64900000D01*
%TO.N,Net-(D1-5-Pad2)*%
X132000000Y-64900000D02*
X135500000Y-64900000D01*
%TO.N,Net-(D1-6-Pad2)*%
X150000000Y-64900000D02*
X153500000Y-64900000D01*
%TO.N,Net-(D1-7-Pad2)*%
X168000000Y-64900000D02*
X171500000Y-64900000D01*
%TO.N,Net-(D1-8-Pad2)*%
X186000000Y-64900000D02*
X189500000Y-64900000D01*
%TO.N,Net-(D1-9-Pad2)*%
X204000000Y-64900000D02*
X207500000Y-64900000D01*
%TO.N,Net-(D1-10-Pad2)*%
X222000000Y-64900000D02*
X225500000Y-64900000D01*
%TO.N,Net-(D1-11-Pad2)*%
X240000000Y-64900000D02*
X243500000Y-64900000D01*
%TO.N,Net-(D2-0-Pad2)*%
X42000000Y-81900000D02*
X45500000Y-81900000D01*
%TO.N,ROW2*%
X57600000Y-78600000D02*
X63500000Y-78600000D01*
X57000000Y-78000000D02*
X57600000Y-78600000D01*
X53000000Y-78000000D02*
X57000000Y-78000000D01*
X52400000Y-78600000D02*
X53000000Y-78000000D01*
X45500000Y-78600000D02*
X52400000Y-78600000D01*
X75600000Y-78600000D02*
X81500000Y-78600000D01*
X71000000Y-78000000D02*
X75000000Y-78000000D01*
X75000000Y-78000000D02*
X75600000Y-78600000D01*
X70400000Y-78600000D02*
X71000000Y-78000000D01*
X63500000Y-78600000D02*
X70400000Y-78600000D01*
X93600000Y-78600000D02*
X99500000Y-78600000D01*
X93000000Y-78000000D02*
X93600000Y-78600000D01*
X89000000Y-78000000D02*
X93000000Y-78000000D01*
X88400000Y-78600000D02*
X89000000Y-78000000D01*
X81500000Y-78600000D02*
X88400000Y-78600000D01*
X111600000Y-78600000D02*
X117500000Y-78600000D01*
X111000000Y-78000000D02*
X111600000Y-78600000D01*
X107000000Y-78000000D02*
X111000000Y-78000000D01*
X106400000Y-78600000D02*
X107000000Y-78000000D01*
X99500000Y-78600000D02*
X106400000Y-78600000D01*
X129600000Y-78600000D02*
X135500000Y-78600000D01*
X129000000Y-78000000D02*
X129600000Y-78600000D01*
X125000000Y-78000000D02*
X129000000Y-78000000D01*
X124400000Y-78600000D02*
X125000000Y-78000000D01*
X117500000Y-78600000D02*
X124400000Y-78600000D01*
X147600000Y-78600000D02*
X153500000Y-78600000D01*
X147000000Y-78000000D02*
X147600000Y-78600000D01*
X143000000Y-78000000D02*
X147000000Y-78000000D01*
X142400000Y-78600000D02*
X143000000Y-78000000D01*
X135500000Y-78600000D02*
X142400000Y-78600000D01*
X165000000Y-78000000D02*
X165600000Y-78600000D01*
X165600000Y-78600000D02*
X171500000Y-78600000D01*
X161000000Y-78000000D02*
X165000000Y-78000000D01*
X160400000Y-78600000D02*
X161000000Y-78000000D01*
X153500000Y-78600000D02*
X160400000Y-78600000D01*
X183600000Y-78600000D02*
X189500000Y-78600000D01*
X183000000Y-78000000D02*
X183600000Y-78600000D01*
X179000000Y-78000000D02*
X183000000Y-78000000D01*
X178400000Y-78600000D02*
X179000000Y-78000000D01*
X171500000Y-78600000D02*
X178400000Y-78600000D01*
X201600000Y-78600000D02*
X207500000Y-78600000D01*
X197000000Y-78000000D02*
X201000000Y-78000000D01*
X196400000Y-78600000D02*
X197000000Y-78000000D01*
X201000000Y-78000000D02*
X201600000Y-78600000D01*
X189500000Y-78600000D02*
X196400000Y-78600000D01*
X219000000Y-78000000D02*
X219600000Y-78600000D01*
X215000000Y-78000000D02*
X219000000Y-78000000D01*
X214400000Y-78600000D02*
X215000000Y-78000000D01*
X219600000Y-78600000D02*
X225500000Y-78600000D01*
X207500000Y-78600000D02*
X214400000Y-78600000D01*
X237600000Y-78600000D02*
X243500000Y-78600000D01*
X237000000Y-78000000D02*
X237600000Y-78600000D01*
X233000000Y-78000000D02*
X237000000Y-78000000D01*
X232400000Y-78600000D02*
X233000000Y-78000000D01*
X225500000Y-78600000D02*
X232400000Y-78600000D01*
X70380000Y-63180000D02*
X72250000Y-65050000D01*
X72250000Y-65050000D02*
X72250000Y-70500000D01*
X72250000Y-70500000D02*
X75000000Y-73250000D01*
X75000000Y-73250000D02*
X79500000Y-73250000D01*
X81500000Y-75250000D02*
X81500000Y-78600000D01*
X79500000Y-73250000D02*
X81500000Y-75250000D01*
%TO.N,Net-(D2-1-Pad2)*%
X60000000Y-81900000D02*
X63500000Y-81900000D01*
%TO.N,Net-(D2-2-Pad2)*%
X78000000Y-81900000D02*
X81500000Y-81900000D01*
%TO.N,Net-(D2-3-Pad2)*%
X96000000Y-81900000D02*
X99500000Y-81900000D01*
%TO.N,Net-(D2-4-Pad2)*%
X114000000Y-81900000D02*
X117500000Y-81900000D01*
%TO.N,Net-(D2-5-Pad2)*%
X132000000Y-81900000D02*
X135500000Y-81900000D01*
%TO.N,Net-(D2-6-Pad2)*%
X150000000Y-81900000D02*
X153500000Y-81900000D01*
%TO.N,Net-(D2-7-Pad2)*%
X168000000Y-81900000D02*
X171500000Y-81900000D01*
%TO.N,Net-(D2-8-Pad2)*%
X186000000Y-81900000D02*
X189500000Y-81900000D01*
%TO.N,Net-(D2-9-Pad2)*%
X204000000Y-81900000D02*
X207500000Y-81900000D01*
%TO.N,Net-(D2-10-Pad2)*%
X222000000Y-81900000D02*
X225500000Y-81900000D01*
%TO.N,Net-(D2-11-Pad2)*%
X240000000Y-81900000D02*
X243500000Y-81900000D01*
%TO.N,Net-(D3-0-Pad2)*%
X42000000Y-98900000D02*
X45250000Y-98900000D01*
%TO.N,ROW3*%
X57000000Y-95000000D02*
X57600000Y-95600000D01*
X53000000Y-95000000D02*
X57000000Y-95000000D01*
X52400000Y-95600000D02*
X53000000Y-95000000D01*
X57600000Y-95600000D02*
X63500000Y-95600000D01*
X45250000Y-95600000D02*
X52400000Y-95600000D01*
X75000000Y-95000000D02*
X75600000Y-95600000D01*
X71000000Y-95000000D02*
X75000000Y-95000000D01*
X70400000Y-95600000D02*
X71000000Y-95000000D01*
X75600000Y-95600000D02*
X81500000Y-95600000D01*
X63500000Y-95600000D02*
X70400000Y-95600000D01*
X93600000Y-95600000D02*
X99500000Y-95600000D01*
X93000000Y-95000000D02*
X93600000Y-95600000D01*
X89000000Y-95000000D02*
X93000000Y-95000000D01*
X88400000Y-95600000D02*
X89000000Y-95000000D01*
X81500000Y-95600000D02*
X88400000Y-95600000D01*
X111600000Y-95600000D02*
X117500000Y-95600000D01*
X111000000Y-95000000D02*
X111600000Y-95600000D01*
X107000000Y-95000000D02*
X111000000Y-95000000D01*
X106400000Y-95600000D02*
X107000000Y-95000000D01*
X99500000Y-95600000D02*
X106400000Y-95600000D01*
X138600000Y-95600000D02*
X144500000Y-95600000D01*
X138000000Y-95000000D02*
X138600000Y-95600000D01*
X132000000Y-95000000D02*
X138000000Y-95000000D01*
X130500000Y-93500000D02*
X132000000Y-95000000D01*
X126500000Y-93500000D02*
X130500000Y-93500000D01*
X124400000Y-95600000D02*
X126500000Y-93500000D01*
X117500000Y-95600000D02*
X124400000Y-95600000D01*
X165600000Y-95600000D02*
X171500000Y-95600000D01*
X161000000Y-95000000D02*
X165000000Y-95000000D01*
X157500000Y-95500000D02*
X160500000Y-95500000D01*
X165000000Y-95000000D02*
X165600000Y-95600000D01*
X155500000Y-93500000D02*
X157500000Y-95500000D01*
X160500000Y-95500000D02*
X161000000Y-95000000D01*
X151500000Y-93500000D02*
X155500000Y-93500000D01*
X149400000Y-95600000D02*
X151500000Y-93500000D01*
X144500000Y-95600000D02*
X149400000Y-95600000D01*
X183600000Y-95600000D02*
X189500000Y-95600000D01*
X183000000Y-95000000D02*
X183600000Y-95600000D01*
X179000000Y-95000000D02*
X183000000Y-95000000D01*
X178400000Y-95600000D02*
X179000000Y-95000000D01*
X171500000Y-95600000D02*
X178400000Y-95600000D01*
X201600000Y-95600000D02*
X207500000Y-95600000D01*
X201000000Y-95000000D02*
X201600000Y-95600000D01*
X197000000Y-95000000D02*
X201000000Y-95000000D01*
X196400000Y-95600000D02*
X197000000Y-95000000D01*
X189500000Y-95600000D02*
X196400000Y-95600000D01*
X219600000Y-95600000D02*
X225500000Y-95600000D01*
X219000000Y-95000000D02*
X219600000Y-95600000D01*
X215000000Y-95000000D02*
X219000000Y-95000000D01*
X214400000Y-95600000D02*
X215000000Y-95000000D01*
X207500000Y-95600000D02*
X214400000Y-95600000D01*
X237600000Y-95600000D02*
X243500000Y-95600000D01*
X237000000Y-95000000D02*
X237600000Y-95600000D01*
X233000000Y-95000000D02*
X237000000Y-95000000D01*
X232400000Y-95600000D02*
X233000000Y-95000000D01*
X225500000Y-95600000D02*
X232400000Y-95600000D01*
X45250000Y-95600000D02*
X45250000Y-88750000D01*
X45250000Y-88750000D02*
X39000000Y-82500000D01*
X39000000Y-82500000D02*
X39000000Y-74000000D01*
X39000000Y-74000000D02*
X43000000Y-70000000D01*
X43000000Y-70000000D02*
X66100000Y-70000000D01*
X66100000Y-70000000D02*
X70380000Y-65720000D01*
%TO.N,Net-(D3-1-Pad2)*%
X60000000Y-98900000D02*
X63500000Y-98900000D01*
%TO.N,Net-(D3-2-Pad2)*%
X78000000Y-98900000D02*
X81500000Y-98900000D01*
%TO.N,Net-(D3-3-Pad2)*%
X96000000Y-98900000D02*
X99500000Y-98900000D01*
%TO.N,Net-(D3-4-Pad2)*%
X114000000Y-98900000D02*
X117500000Y-98900000D01*
%TO.N,Net-(D3-5-Pad2)*%
X141000000Y-98900000D02*
X144500000Y-98900000D01*
%TO.N,Net-(D3-7-Pad2)*%
X168000000Y-98900000D02*
X171500000Y-98900000D01*
%TO.N,Net-(D3-8-Pad2)*%
X186000000Y-98900000D02*
X189500000Y-98900000D01*
%TO.N,Net-(D3-9-Pad2)*%
X204000000Y-98900000D02*
X207500000Y-98900000D01*
%TO.N,Net-(D3-10-Pad2)*%
X222000000Y-98900000D02*
X225500000Y-98900000D01*
%TO.N,Net-(D3-11-Pad2)*%
X240000000Y-98900000D02*
X243500000Y-98900000D01*
%TO.N,COL3*%
X79940000Y-55560000D02*
X70380000Y-55560000D01*
X81500000Y-59500000D02*
X81500000Y-57120000D01*
X81500000Y-57120000D02*
X79940000Y-55560000D01*
X83500000Y-66750000D02*
X83500000Y-61500000D01*
X84250000Y-67500000D02*
X83500000Y-66750000D01*
X83500000Y-61500000D02*
X81500000Y-59500000D01*
X87000000Y-67500000D02*
X84250000Y-67500000D01*
X87700010Y-66799990D02*
X87000000Y-67500000D01*
X87700010Y-63799990D02*
X87700010Y-66799990D01*
X88700000Y-62800000D02*
X87700010Y-63799990D01*
X91000000Y-62800000D02*
X88700000Y-62800000D01*
%TO.N,COL4*%
X101000000Y-61000000D02*
X107200000Y-61000000D01*
X99500000Y-59500000D02*
X101000000Y-61000000D01*
X99500000Y-58000000D02*
X99500000Y-59500000D01*
X94500000Y-56500000D02*
X98000000Y-56500000D01*
X93000000Y-58000000D02*
X94500000Y-56500000D01*
X93000000Y-59500000D02*
X93000000Y-58000000D01*
X91750000Y-60750000D02*
X93000000Y-59500000D01*
X98000000Y-56500000D02*
X99500000Y-58000000D01*
X88750000Y-60750000D02*
X91750000Y-60750000D01*
X107200000Y-61000000D02*
X109000000Y-62800000D01*
X87250000Y-62250000D02*
X88750000Y-60750000D01*
X87250000Y-64090000D02*
X87250000Y-62250000D01*
X85620000Y-65720000D02*
X87250000Y-64090000D01*
%TO.N,COL5*%
X112500000Y-56500000D02*
X120700000Y-56500000D01*
X100000000Y-57500000D02*
X111500000Y-57500000D01*
X111500000Y-57500000D02*
X112500000Y-56500000D01*
X92500000Y-57500000D02*
X94000000Y-56000000D01*
X88500000Y-57500000D02*
X92500000Y-57500000D01*
X98500000Y-56000000D02*
X100000000Y-57500000D01*
X94000000Y-56000000D02*
X98500000Y-56000000D01*
X88000000Y-58000000D02*
X88500000Y-57500000D01*
X88000000Y-60800000D02*
X88000000Y-58000000D01*
X120700000Y-56500000D02*
X127000000Y-62800000D01*
X85620000Y-63180000D02*
X88000000Y-60800000D01*
%TO.N,COL6*%
X135500000Y-57000000D02*
X139200000Y-57000000D01*
X134500000Y-56000000D02*
X135500000Y-57000000D01*
X112000000Y-56000000D02*
X134500000Y-56000000D01*
X100500000Y-57000000D02*
X111000000Y-57000000D01*
X99000000Y-55500000D02*
X100500000Y-57000000D01*
X93500000Y-55500000D02*
X99000000Y-55500000D01*
X92000000Y-57000000D02*
X93500000Y-55500000D01*
X139200000Y-57000000D02*
X145000000Y-62800000D01*
X111000000Y-57000000D02*
X112000000Y-56000000D01*
X88250000Y-57000000D02*
X92000000Y-57000000D01*
X87500000Y-57750000D02*
X88250000Y-57000000D01*
X87500000Y-58760000D02*
X87500000Y-57750000D01*
X85620000Y-60640000D02*
X87500000Y-58760000D01*
%TO.N,COL7*%
X93000000Y-55000000D02*
X99500000Y-55000000D01*
X136000000Y-56500000D02*
X156700000Y-56500000D01*
X87220000Y-56500000D02*
X91500000Y-56500000D01*
X118000000Y-53500000D02*
X120500000Y-53500000D01*
X91500000Y-56500000D02*
X93000000Y-55000000D01*
X99500000Y-55000000D02*
X101000000Y-56500000D01*
X85620000Y-58100000D02*
X87220000Y-56500000D01*
X122500000Y-55500000D02*
X135000000Y-55500000D01*
X110500000Y-56500000D02*
X111500000Y-55500000D01*
X111500000Y-55500000D02*
X116000000Y-55500000D01*
X156700000Y-56500000D02*
X163000000Y-62800000D01*
X101000000Y-56500000D02*
X110500000Y-56500000D01*
X135000000Y-55500000D02*
X136000000Y-56500000D01*
X116000000Y-55500000D02*
X118000000Y-53500000D01*
X120500000Y-53500000D02*
X122500000Y-55500000D01*
%TO.N,COL8*%
X136549990Y-52950010D02*
X166950010Y-52950010D01*
X134500000Y-55000000D02*
X136549990Y-52950010D01*
X85620000Y-55560000D02*
X91440000Y-55560000D01*
X91440000Y-55560000D02*
X92500000Y-54500000D01*
X111000000Y-55000000D02*
X115500000Y-55000000D01*
X92500000Y-54500000D02*
X99500000Y-54500000D01*
X99500000Y-54500000D02*
X100500000Y-53500000D01*
X100500000Y-53500000D02*
X102000000Y-53500000D01*
X117500000Y-53000000D02*
X121000000Y-53000000D01*
X102000000Y-53500000D02*
X104500000Y-56000000D01*
X104500000Y-56000000D02*
X110000000Y-56000000D01*
X110000000Y-56000000D02*
X111000000Y-55000000D01*
X115500000Y-55000000D02*
X117500000Y-53000000D01*
X121000000Y-53000000D02*
X123000000Y-55000000D01*
X123000000Y-55000000D02*
X134500000Y-55000000D01*
X166950010Y-52950010D02*
X171000000Y-57000000D01*
X175200000Y-57000000D02*
X181000000Y-62800000D01*
X171000000Y-57000000D02*
X175200000Y-57000000D01*
%TO.N,COL9*%
X171510489Y-56510489D02*
X192710489Y-56510489D01*
X85620000Y-53020000D02*
X85625001Y-53025001D01*
X110500000Y-54500000D02*
X115000000Y-54500000D01*
X85625001Y-53025001D02*
X102525001Y-53025001D01*
X117000000Y-52500000D02*
X121500000Y-52500000D01*
X102525001Y-53025001D02*
X105000000Y-55500000D01*
X134000000Y-54500000D02*
X136000000Y-52500000D01*
X105000000Y-55500000D02*
X109500000Y-55500000D01*
X115000000Y-54500000D02*
X117000000Y-52500000D01*
X192710489Y-56510489D02*
X199000000Y-62800000D01*
X121500000Y-52500000D02*
X123500000Y-54500000D01*
X123500000Y-54500000D02*
X134000000Y-54500000D01*
X109500000Y-55500000D02*
X110500000Y-54500000D01*
X136000000Y-52500000D02*
X167500000Y-52500000D01*
X167500000Y-52500000D02*
X171510489Y-56510489D01*
%TO.N,COL10*%
X213000000Y-58800000D02*
X213850000Y-59650000D01*
X213850000Y-59650000D02*
X217000000Y-62800000D01*
X211200000Y-57000000D02*
X213850000Y-59650000D01*
X203000000Y-53500000D02*
X206500000Y-57000000D01*
X206500000Y-57000000D02*
X211200000Y-57000000D01*
X174500000Y-53500000D02*
X176000000Y-53500000D01*
X173000000Y-52000000D02*
X174500000Y-53500000D01*
X107000000Y-47500000D02*
X111500000Y-52000000D01*
X100020000Y-50480000D02*
X103000000Y-47500000D01*
X111500000Y-52000000D02*
X173000000Y-52000000D01*
X85620000Y-50480000D02*
X100020000Y-50480000D01*
X176000000Y-53500000D02*
X203000000Y-53500000D01*
X103000000Y-47500000D02*
X107000000Y-47500000D01*
X175000000Y-53500000D02*
X176000000Y-53500000D01*
%TO.N,COL11*%
X92060000Y-47940000D02*
X85620000Y-47940000D01*
X94000000Y-46000000D02*
X92060000Y-47940000D01*
X235000000Y-62800000D02*
X228700000Y-56500000D01*
X120000000Y-46000000D02*
X111500000Y-46000000D01*
X106500000Y-46000000D02*
X94000000Y-46000000D01*
X110000000Y-47500000D02*
X108000000Y-47500000D01*
X228700000Y-56500000D02*
X207000000Y-56500000D01*
X184549990Y-53049990D02*
X178756319Y-47256319D01*
X207000000Y-56500000D02*
X203549990Y-53049990D01*
X108000000Y-47500000D02*
X106500000Y-46000000D01*
X203549990Y-53049990D02*
X184549990Y-53049990D01*
X178756319Y-47256319D02*
X175243681Y-47256319D01*
X175243681Y-47256319D02*
X171000000Y-51500000D01*
X125500000Y-51500000D02*
X120000000Y-46000000D01*
X171000000Y-51500000D02*
X125500000Y-51500000D01*
X111500000Y-46000000D02*
X110000000Y-47500000D01*
%TD*%
M02*
