%TF.GenerationSoftware,KiCad,Pcbnew,(5.1.9)-1*%
%TF.CreationDate,2021-08-02T02:46:02+02:00*%
%TF.ProjectId,rooster-pcb,726f6f73-7465-4722-9d70-63622e6b6963,rev?*%
%TF.SameCoordinates,Original*%
%TF.FileFunction,Paste,Bot*%
%TF.FilePolarity,Positive*%
%FSLAX46Y46*%
G04 Gerber Fmt 4.6, Leading zero omitted, Abs format (unit mm)*
G04 Created by KiCad (PCBNEW (5.1.9)-1) date 2021-08-02 02:46:02*
%MOMM*%
%LPD*%
G01*
G04 APERTURE LIST*
%ADD10R,1.200000X0.900000*%
%ADD11R,0.900000X1.200000*%
G04 APERTURE END LIST*
D10*
%TO.C,D0-0*%
X45500000Y-47900000D03*
X45500000Y-44600000D03*
%TD*%
%TO.C,D3-11*%
X243500000Y-98900000D03*
X243500000Y-95600000D03*
%TD*%
%TO.C,D3-10*%
X225500000Y-98900000D03*
X225500000Y-95600000D03*
%TD*%
%TO.C,D3-9*%
X207500000Y-98900000D03*
X207500000Y-95600000D03*
%TD*%
%TO.C,D3-8*%
X189500000Y-98900000D03*
X189500000Y-95600000D03*
%TD*%
%TO.C,D3-7*%
X171500000Y-98900000D03*
X171500000Y-95600000D03*
%TD*%
%TO.C,D3-5*%
X144500000Y-98900000D03*
X144500000Y-95600000D03*
%TD*%
%TO.C,D3-4*%
X117500000Y-98900000D03*
X117500000Y-95600000D03*
%TD*%
%TO.C,D3-3*%
X99500000Y-98900000D03*
X99500000Y-95600000D03*
%TD*%
%TO.C,D3-2*%
X81500000Y-98900000D03*
X81500000Y-95600000D03*
%TD*%
%TO.C,D3-1*%
X63500000Y-98900000D03*
X63500000Y-95600000D03*
%TD*%
%TO.C,D3-0*%
X45250000Y-98900000D03*
X45250000Y-95600000D03*
%TD*%
%TO.C,D2-11*%
X243500000Y-81900000D03*
X243500000Y-78600000D03*
%TD*%
%TO.C,D2-10*%
X225500000Y-81900000D03*
X225500000Y-78600000D03*
%TD*%
%TO.C,D2-9*%
X207500000Y-81900000D03*
X207500000Y-78600000D03*
%TD*%
%TO.C,D2-8*%
X189500000Y-81900000D03*
X189500000Y-78600000D03*
%TD*%
%TO.C,D2-7*%
X171500000Y-81900000D03*
X171500000Y-78600000D03*
%TD*%
%TO.C,D2-6*%
X153500000Y-81900000D03*
X153500000Y-78600000D03*
%TD*%
%TO.C,D2-5*%
X135500000Y-81900000D03*
X135500000Y-78600000D03*
%TD*%
%TO.C,D2-4*%
X117500000Y-81900000D03*
X117500000Y-78600000D03*
%TD*%
%TO.C,D2-3*%
X99500000Y-81900000D03*
X99500000Y-78600000D03*
%TD*%
%TO.C,D2-2*%
X81500000Y-81900000D03*
X81500000Y-78600000D03*
%TD*%
%TO.C,D2-1*%
X63500000Y-81900000D03*
X63500000Y-78600000D03*
%TD*%
%TO.C,D2-0*%
X45500000Y-81900000D03*
X45500000Y-78600000D03*
%TD*%
%TO.C,D1-11*%
X243500000Y-64900000D03*
X243500000Y-61600000D03*
%TD*%
%TO.C,D1-10*%
X225500000Y-64900000D03*
X225500000Y-61600000D03*
%TD*%
%TO.C,D1-9*%
X207500000Y-64900000D03*
X207500000Y-61600000D03*
%TD*%
%TO.C,D1-8*%
X189500000Y-64900000D03*
X189500000Y-61600000D03*
%TD*%
%TO.C,D1-7*%
X171500000Y-64900000D03*
X171500000Y-61600000D03*
%TD*%
%TO.C,D1-6*%
X153500000Y-64900000D03*
X153500000Y-61600000D03*
%TD*%
%TO.C,D1-5*%
X135500000Y-64900000D03*
X135500000Y-61600000D03*
%TD*%
%TO.C,D1-4*%
X117500000Y-64900000D03*
X117500000Y-61600000D03*
%TD*%
%TO.C,D1-3*%
X99500000Y-64900000D03*
X99500000Y-61600000D03*
%TD*%
D11*
%TO.C,D1-2*%
X89350000Y-65750000D03*
X92650000Y-65750000D03*
%TD*%
D10*
%TO.C,D1-1*%
X63500000Y-64900000D03*
X63500000Y-61600000D03*
%TD*%
%TO.C,D1-0*%
X45500000Y-64900000D03*
X45500000Y-61600000D03*
%TD*%
%TO.C,D0-11*%
X243500000Y-47900000D03*
X243500000Y-44600000D03*
%TD*%
%TO.C,D0-10*%
X225500000Y-47900000D03*
X225500000Y-44600000D03*
%TD*%
%TO.C,D0-9*%
X207500000Y-47900000D03*
X207500000Y-44600000D03*
%TD*%
%TO.C,D0-8*%
X189500000Y-47900000D03*
X189500000Y-44600000D03*
%TD*%
%TO.C,D0-7*%
X171500000Y-47900000D03*
X171500000Y-44600000D03*
%TD*%
%TO.C,D0-6*%
X153500000Y-47900000D03*
X153500000Y-44600000D03*
%TD*%
%TO.C,D0-5*%
X135500000Y-47900000D03*
X135500000Y-44600000D03*
%TD*%
%TO.C,D0-4*%
X117500000Y-47900000D03*
X117500000Y-44600000D03*
%TD*%
%TO.C,D0-3*%
X99500000Y-47900000D03*
X99500000Y-44600000D03*
%TD*%
D11*
%TO.C,D0-2*%
X89350000Y-37750000D03*
X92650000Y-37750000D03*
%TD*%
D10*
%TO.C,D0-1*%
X63500000Y-47900000D03*
X63500000Y-44600000D03*
%TD*%
M02*
