%TF.GenerationSoftware,KiCad,Pcbnew,(5.1.9)-1*%
%TF.CreationDate,2021-08-06T01:24:01+02:00*%
%TF.ProjectId,rooster-pcb,726f6f73-7465-4722-9d70-63622e6b6963,rev?*%
%TF.SameCoordinates,Original*%
%TF.FileFunction,Copper,L1,Top*%
%TF.FilePolarity,Positive*%
%FSLAX46Y46*%
G04 Gerber Fmt 4.6, Leading zero omitted, Abs format (unit mm)*
G04 Created by KiCad (PCBNEW (5.1.9)-1) date 2021-08-06 01:24:01*
%MOMM*%
%LPD*%
G01*
G04 APERTURE LIST*
%TA.AperFunction,ComponentPad*%
%ADD10C,2.032000*%
%TD*%
%TA.AperFunction,ComponentPad*%
%ADD11C,4.400000*%
%TD*%
%TA.AperFunction,ComponentPad*%
%ADD12C,1.752600*%
%TD*%
%TA.AperFunction,ComponentPad*%
%ADD13R,1.752600X1.752600*%
%TD*%
%TA.AperFunction,Conductor*%
%ADD14C,0.250000*%
%TD*%
G04 APERTURE END LIST*
D10*
%TO.P,SW1-5,1*%
%TO.N,Net-(D1-5-Pad2)*%
X132000000Y-64900000D03*
%TO.P,SW1-5,2*%
%TO.N,COL5*%
X127000000Y-62800000D03*
%TD*%
%TO.P,SW1-8,1*%
%TO.N,Net-(D1-8-Pad2)*%
X186000000Y-64900000D03*
%TO.P,SW1-8,2*%
%TO.N,COL8*%
X181000000Y-62800000D03*
%TD*%
%TO.P,SW2-10,1*%
%TO.N,Net-(D2-10-Pad2)*%
X222000000Y-81900000D03*
%TO.P,SW2-10,2*%
%TO.N,COL10*%
X217000000Y-79800000D03*
%TD*%
D11*
%TO.P,M7,1*%
%TO.N,N/C*%
X177000000Y-84500000D03*
%TD*%
%TO.P,M3,1*%
%TO.N,N/C*%
X177000000Y-50500000D03*
%TD*%
%TO.P,M6,1*%
%TO.N,N/C*%
X105000000Y-84500000D03*
%TD*%
%TO.P,M2,1*%
%TO.N,N/C*%
X105000000Y-50500000D03*
%TD*%
%TO.P,M9,1*%
%TO.N,N/C*%
X141000000Y-67500000D03*
%TD*%
%TO.P,M8,1*%
%TO.N,N/C*%
X231000000Y-84500000D03*
%TD*%
%TO.P,M4,1*%
%TO.N,N/C*%
X231000000Y-50500000D03*
%TD*%
%TO.P,M5,1*%
%TO.N,N/C*%
X51000000Y-84500000D03*
%TD*%
%TO.P,M1,1*%
%TO.N,N/C*%
X51000000Y-50500000D03*
%TD*%
D12*
%TO.P,U1,24*%
%TO.N,Net-(U1-Pad24)*%
X85620000Y-37780000D03*
%TO.P,U1,12*%
%TO.N,ROW3*%
X70380000Y-65720000D03*
%TO.P,U1,23*%
%TO.N,GND*%
X85620000Y-40320000D03*
%TO.P,U1,22*%
%TO.N,Net-(U1-Pad22)*%
X85620000Y-42860000D03*
%TO.P,U1,21*%
%TO.N,+5V*%
X85620000Y-45400000D03*
%TO.P,U1,20*%
%TO.N,COL11*%
X85620000Y-47940000D03*
%TO.P,U1,19*%
%TO.N,COL10*%
X85620000Y-50480000D03*
%TO.P,U1,18*%
%TO.N,COL9*%
X85620000Y-53020000D03*
%TO.P,U1,17*%
%TO.N,COL8*%
X85620000Y-55560000D03*
%TO.P,U1,16*%
%TO.N,COL7*%
X85620000Y-58100000D03*
%TO.P,U1,15*%
%TO.N,COL6*%
X85620000Y-60640000D03*
%TO.P,U1,14*%
%TO.N,COL5*%
X85620000Y-63180000D03*
%TO.P,U1,13*%
%TO.N,COL4*%
X85620000Y-65720000D03*
%TO.P,U1,11*%
%TO.N,ROW2*%
X70380000Y-63180000D03*
%TO.P,U1,10*%
%TO.N,ROW1*%
X70380000Y-60640000D03*
%TO.P,U1,9*%
%TO.N,ROW0*%
X70380000Y-58100000D03*
%TO.P,U1,8*%
%TO.N,COL3*%
X70380000Y-55560000D03*
%TO.P,U1,7*%
%TO.N,COL2*%
X70380000Y-53020000D03*
%TO.P,U1,6*%
%TO.N,COL1*%
X70380000Y-50480000D03*
%TO.P,U1,5*%
%TO.N,COL0*%
X70380000Y-47940000D03*
%TO.P,U1,4*%
%TO.N,Net-(U1-Pad4)*%
X70380000Y-45400000D03*
%TO.P,U1,3*%
%TO.N,Net-(U1-Pad3)*%
X70380000Y-42860000D03*
%TO.P,U1,2*%
%TO.N,Net-(U1-Pad2)*%
X70380000Y-40320000D03*
D13*
%TO.P,U1,1*%
%TO.N,Net-(U1-Pad1)*%
X70380000Y-37780000D03*
%TD*%
D10*
%TO.P,SW3-11,1*%
%TO.N,Net-(D3-11-Pad2)*%
X240000000Y-98900000D03*
%TO.P,SW3-11,2*%
%TO.N,COL11*%
X235000000Y-96800000D03*
%TD*%
%TO.P,SW3-10,1*%
%TO.N,Net-(D3-10-Pad2)*%
X222000000Y-98900000D03*
%TO.P,SW3-10,2*%
%TO.N,COL10*%
X217000000Y-96800000D03*
%TD*%
%TO.P,SW3-9,1*%
%TO.N,Net-(D3-9-Pad2)*%
X204000000Y-98900000D03*
%TO.P,SW3-9,2*%
%TO.N,COL9*%
X199000000Y-96800000D03*
%TD*%
%TO.P,SW3-8,1*%
%TO.N,Net-(D3-8-Pad2)*%
X186000000Y-98900000D03*
%TO.P,SW3-8,2*%
%TO.N,COL8*%
X181000000Y-96800000D03*
%TD*%
%TO.P,SW3-7,1*%
%TO.N,Net-(D3-7-Pad2)*%
X168000000Y-98900000D03*
%TO.P,SW3-7,2*%
%TO.N,COL7*%
X163000000Y-96800000D03*
%TD*%
%TO.P,SW3-5,1*%
%TO.N,Net-(D3-5-Pad2)*%
X141000000Y-98900000D03*
%TO.P,SW3-5,2*%
%TO.N,COL5*%
X136000000Y-96800000D03*
%TD*%
%TO.P,SW3-4,1*%
%TO.N,Net-(D3-4-Pad2)*%
X114000000Y-98900000D03*
%TO.P,SW3-4,2*%
%TO.N,COL4*%
X109000000Y-96800000D03*
%TD*%
%TO.P,SW3-3,1*%
%TO.N,Net-(D3-3-Pad2)*%
X96000000Y-98900000D03*
%TO.P,SW3-3,2*%
%TO.N,COL3*%
X91000000Y-96800000D03*
%TD*%
%TO.P,SW3-2,1*%
%TO.N,Net-(D3-2-Pad2)*%
X78000000Y-98900000D03*
%TO.P,SW3-2,2*%
%TO.N,COL2*%
X73000000Y-96800000D03*
%TD*%
%TO.P,SW3-1,1*%
%TO.N,Net-(D3-1-Pad2)*%
X60000000Y-98900000D03*
%TO.P,SW3-1,2*%
%TO.N,COL1*%
X55000000Y-96800000D03*
%TD*%
%TO.P,SW3-0,1*%
%TO.N,Net-(D3-0-Pad2)*%
X42000000Y-98900000D03*
%TO.P,SW3-0,2*%
%TO.N,COL0*%
X37000000Y-96800000D03*
%TD*%
%TO.P,SW2-11,1*%
%TO.N,Net-(D2-11-Pad2)*%
X240000000Y-81900000D03*
%TO.P,SW2-11,2*%
%TO.N,COL11*%
X235000000Y-79800000D03*
%TD*%
%TO.P,SW2-9,1*%
%TO.N,Net-(D2-9-Pad2)*%
X204000000Y-81900000D03*
%TO.P,SW2-9,2*%
%TO.N,COL9*%
X199000000Y-79800000D03*
%TD*%
%TO.P,SW2-8,1*%
%TO.N,Net-(D2-8-Pad2)*%
X186000000Y-81900000D03*
%TO.P,SW2-8,2*%
%TO.N,COL8*%
X181000000Y-79800000D03*
%TD*%
%TO.P,SW2-7,1*%
%TO.N,Net-(D2-7-Pad2)*%
X168000000Y-81900000D03*
%TO.P,SW2-7,2*%
%TO.N,COL7*%
X163000000Y-79800000D03*
%TD*%
%TO.P,SW2-6,1*%
%TO.N,Net-(D2-6-Pad2)*%
X150000000Y-81900000D03*
%TO.P,SW2-6,2*%
%TO.N,COL6*%
X145000000Y-79800000D03*
%TD*%
%TO.P,SW2-5,1*%
%TO.N,Net-(D2-5-Pad2)*%
X132000000Y-81900000D03*
%TO.P,SW2-5,2*%
%TO.N,COL5*%
X127000000Y-79800000D03*
%TD*%
%TO.P,SW2-4,1*%
%TO.N,Net-(D2-4-Pad2)*%
X114000000Y-81900000D03*
%TO.P,SW2-4,2*%
%TO.N,COL4*%
X109000000Y-79800000D03*
%TD*%
%TO.P,SW2-3,1*%
%TO.N,Net-(D2-3-Pad2)*%
X96000000Y-81900000D03*
%TO.P,SW2-3,2*%
%TO.N,COL3*%
X91000000Y-79800000D03*
%TD*%
%TO.P,SW2-2,1*%
%TO.N,Net-(D2-2-Pad2)*%
X78000000Y-81900000D03*
%TO.P,SW2-2,2*%
%TO.N,COL2*%
X73000000Y-79800000D03*
%TD*%
%TO.P,SW2-1,1*%
%TO.N,Net-(D2-1-Pad2)*%
X60000000Y-81900000D03*
%TO.P,SW2-1,2*%
%TO.N,COL1*%
X55000000Y-79800000D03*
%TD*%
%TO.P,SW2-0,1*%
%TO.N,Net-(D2-0-Pad2)*%
X42000000Y-81900000D03*
%TO.P,SW2-0,2*%
%TO.N,COL0*%
X37000000Y-79800000D03*
%TD*%
%TO.P,SW1-11,1*%
%TO.N,Net-(D1-11-Pad2)*%
X240000000Y-64900000D03*
%TO.P,SW1-11,2*%
%TO.N,COL11*%
X235000000Y-62800000D03*
%TD*%
%TO.P,SW1-10,1*%
%TO.N,Net-(D1-10-Pad2)*%
X222000000Y-64900000D03*
%TO.P,SW1-10,2*%
%TO.N,COL10*%
X217000000Y-62800000D03*
%TD*%
%TO.P,SW1-9,1*%
%TO.N,Net-(D1-9-Pad2)*%
X204000000Y-64900000D03*
%TO.P,SW1-9,2*%
%TO.N,COL9*%
X199000000Y-62800000D03*
%TD*%
%TO.P,SW1-7,1*%
%TO.N,Net-(D1-7-Pad2)*%
X168000000Y-64900000D03*
%TO.P,SW1-7,2*%
%TO.N,COL7*%
X163000000Y-62800000D03*
%TD*%
%TO.P,SW1-6,1*%
%TO.N,Net-(D1-6-Pad2)*%
X150000000Y-64900000D03*
%TO.P,SW1-6,2*%
%TO.N,COL6*%
X145000000Y-62800000D03*
%TD*%
%TO.P,SW1-4,1*%
%TO.N,Net-(D1-4-Pad2)*%
X114000000Y-64900000D03*
%TO.P,SW1-4,2*%
%TO.N,COL4*%
X109000000Y-62800000D03*
%TD*%
%TO.P,SW1-3,1*%
%TO.N,Net-(D1-3-Pad2)*%
X96000000Y-64900000D03*
%TO.P,SW1-3,2*%
%TO.N,COL3*%
X91000000Y-62800000D03*
%TD*%
%TO.P,SW1-2,1*%
%TO.N,Net-(D1-2-Pad2)*%
X78000000Y-64900000D03*
%TO.P,SW1-2,2*%
%TO.N,COL2*%
X73000000Y-62800000D03*
%TD*%
%TO.P,SW1-1,1*%
%TO.N,Net-(D1-1-Pad2)*%
X60000000Y-64900000D03*
%TO.P,SW1-1,2*%
%TO.N,COL1*%
X55000000Y-62800000D03*
%TD*%
%TO.P,SW1-0,1*%
%TO.N,Net-(D1-0-Pad2)*%
X42000000Y-64900000D03*
%TO.P,SW1-0,2*%
%TO.N,COL0*%
X37000000Y-62800000D03*
%TD*%
%TO.P,SW0-11,1*%
%TO.N,Net-(D0-11-Pad2)*%
X240000000Y-47900000D03*
%TO.P,SW0-11,2*%
%TO.N,COL11*%
X235000000Y-45800000D03*
%TD*%
%TO.P,SW0-10,1*%
%TO.N,Net-(D0-10-Pad2)*%
X222000000Y-47900000D03*
%TO.P,SW0-10,2*%
%TO.N,COL10*%
X217000000Y-45800000D03*
%TD*%
%TO.P,SW0-9,1*%
%TO.N,Net-(D0-9-Pad2)*%
X204000000Y-47900000D03*
%TO.P,SW0-9,2*%
%TO.N,COL9*%
X199000000Y-45800000D03*
%TD*%
%TO.P,SW0-8,1*%
%TO.N,Net-(D0-8-Pad2)*%
X186000000Y-47900000D03*
%TO.P,SW0-8,2*%
%TO.N,COL8*%
X181000000Y-45800000D03*
%TD*%
%TO.P,SW0-7,1*%
%TO.N,Net-(D0-7-Pad2)*%
X168000000Y-47900000D03*
%TO.P,SW0-7,2*%
%TO.N,COL7*%
X163000000Y-45800000D03*
%TD*%
%TO.P,SW0-6,1*%
%TO.N,Net-(D0-6-Pad2)*%
X150000000Y-47900000D03*
%TO.P,SW0-6,2*%
%TO.N,COL6*%
X145000000Y-45800000D03*
%TD*%
%TO.P,SW0-5,1*%
%TO.N,Net-(D0-5-Pad2)*%
X132000000Y-47900000D03*
%TO.P,SW0-5,2*%
%TO.N,COL5*%
X127000000Y-45800000D03*
%TD*%
%TO.P,SW0-4,1*%
%TO.N,Net-(D0-4-Pad2)*%
X114000000Y-47900000D03*
%TO.P,SW0-4,2*%
%TO.N,COL4*%
X109000000Y-45800000D03*
%TD*%
%TO.P,SW0-3,2*%
%TO.N,COL3*%
X91000000Y-45800000D03*
%TO.P,SW0-3,1*%
%TO.N,Net-(D0-3-Pad2)*%
X96000000Y-47900000D03*
%TD*%
%TO.P,SW0-2,1*%
%TO.N,Net-(D0-2-Pad2)*%
X78000000Y-47900000D03*
%TO.P,SW0-2,2*%
%TO.N,COL2*%
X73000000Y-45800000D03*
%TD*%
%TO.P,SW0-1,1*%
%TO.N,Net-(D0-1-Pad2)*%
X60000000Y-47900000D03*
%TO.P,SW0-1,2*%
%TO.N,COL1*%
X55000000Y-45800000D03*
%TD*%
%TO.P,SW0-0,1*%
%TO.N,Net-(D0-0-Pad2)*%
X42000000Y-47900000D03*
%TO.P,SW0-0,2*%
%TO.N,COL0*%
X37000000Y-45800000D03*
%TD*%
D14*
%TO.N,COL0*%
X37000000Y-96800000D02*
X38500000Y-95300000D01*
X38500000Y-95300000D02*
X38500000Y-90500000D01*
X38500000Y-90500000D02*
X37000000Y-89000000D01*
X37000000Y-89000000D02*
X37000000Y-79800000D01*
X37000000Y-79800000D02*
X38500000Y-78300000D01*
X38500000Y-78300000D02*
X38500000Y-73500000D01*
X38500000Y-73500000D02*
X37000000Y-72000000D01*
X37000000Y-72000000D02*
X37000000Y-62800000D01*
X37000000Y-62800000D02*
X38500000Y-61300000D01*
X38500000Y-61300000D02*
X38500000Y-56500000D01*
X38500000Y-56500000D02*
X37000000Y-55000000D01*
X37000000Y-55000000D02*
X37000000Y-45800000D01*
X37000000Y-45800000D02*
X51200000Y-45800000D01*
X51200000Y-45800000D02*
X53000000Y-44000000D01*
X53000000Y-44000000D02*
X57000000Y-44000000D01*
X57000000Y-44000000D02*
X59000000Y-46000000D01*
X68440000Y-46000000D02*
X70380000Y-47940000D01*
X59000000Y-46000000D02*
X68440000Y-46000000D01*
%TO.N,COL1*%
X55000000Y-96800000D02*
X56500000Y-95300000D01*
X56500000Y-95300000D02*
X56500000Y-90500000D01*
X56500000Y-90500000D02*
X55000000Y-89000000D01*
X55000000Y-89000000D02*
X55000000Y-79800000D01*
X55000000Y-79800000D02*
X56500000Y-78300000D01*
X56500000Y-78300000D02*
X56500000Y-73500000D01*
X56500000Y-73500000D02*
X55000000Y-72000000D01*
X55000000Y-72000000D02*
X55000000Y-62800000D01*
X55000000Y-62800000D02*
X56500000Y-61300000D01*
X56500000Y-61300000D02*
X56500000Y-56500000D01*
X56500000Y-56500000D02*
X55000000Y-55000000D01*
X55020000Y-50480000D02*
X55000000Y-50500000D01*
X55000000Y-50500000D02*
X55000000Y-45800000D01*
X55000000Y-55000000D02*
X55000000Y-50500000D01*
X55000000Y-45800000D02*
X55000000Y-47500000D01*
X55000000Y-45800000D02*
X59700000Y-50500000D01*
X70360000Y-50500000D02*
X70380000Y-50480000D01*
X59700000Y-50500000D02*
X70360000Y-50500000D01*
%TO.N,COL2*%
X73000000Y-96800000D02*
X74500000Y-95300000D01*
X74500000Y-95300000D02*
X74500000Y-90500000D01*
X74500000Y-90500000D02*
X73000000Y-89000000D01*
X73000000Y-89000000D02*
X73000000Y-79800000D01*
X73000000Y-79800000D02*
X74500000Y-78300000D01*
X74500000Y-78300000D02*
X74500000Y-73500000D01*
X74500000Y-73500000D02*
X73000000Y-72000000D01*
X73000000Y-72000000D02*
X73000000Y-62800000D01*
X74500000Y-57640000D02*
X70380000Y-53520000D01*
X74500000Y-61300000D02*
X74500000Y-57640000D01*
X73000000Y-62800000D02*
X74500000Y-61300000D01*
X73000000Y-50900000D02*
X70380000Y-53520000D01*
X73000000Y-45800000D02*
X73000000Y-50900000D01*
%TO.N,COL3*%
X91000000Y-96800000D02*
X92500000Y-95300000D01*
X92500000Y-95300000D02*
X92500000Y-90500000D01*
X92500000Y-90500000D02*
X91000000Y-89000000D01*
X91000000Y-89000000D02*
X91000000Y-79800000D01*
X91000000Y-79800000D02*
X92500000Y-78300000D01*
X92500000Y-78300000D02*
X92500000Y-73500000D01*
X92500000Y-73500000D02*
X91000000Y-72000000D01*
X91000000Y-72000000D02*
X91000000Y-62800000D01*
X91000000Y-62800000D02*
X92500000Y-61300000D01*
X92500000Y-61300000D02*
X92500000Y-56500000D01*
X92500000Y-56500000D02*
X91000000Y-55000000D01*
X91000000Y-55000000D02*
X91000000Y-45800000D01*
%TO.N,COL4*%
X109000000Y-96800000D02*
X110500000Y-95300000D01*
X110500000Y-95300000D02*
X110500000Y-90500000D01*
X110500000Y-90500000D02*
X109000000Y-89000000D01*
X109000000Y-89000000D02*
X109000000Y-79800000D01*
X109000000Y-79800000D02*
X110500000Y-78300000D01*
X110500000Y-78300000D02*
X110500000Y-73500000D01*
X110500000Y-73500000D02*
X109000000Y-72000000D01*
X109000000Y-72000000D02*
X109000000Y-62800000D01*
X109000000Y-62800000D02*
X110500000Y-61300000D01*
X110500000Y-61300000D02*
X110500000Y-56500000D01*
X110500000Y-56500000D02*
X109000000Y-55000000D01*
X109000000Y-55000000D02*
X109000000Y-45800000D01*
%TO.N,COL5*%
X136000000Y-96800000D02*
X133800000Y-96800000D01*
X133800000Y-96800000D02*
X132500000Y-95500000D01*
X127000000Y-82500000D02*
X127000000Y-79800000D01*
X127000000Y-82500000D02*
X132500000Y-88000000D01*
X132500000Y-88000000D02*
X132500000Y-95500000D01*
X127000000Y-79800000D02*
X128500000Y-78300000D01*
X128500000Y-78300000D02*
X128500000Y-73500000D01*
X128500000Y-73500000D02*
X127000000Y-72000000D01*
X127000000Y-72000000D02*
X127000000Y-62800000D01*
X127000000Y-62800000D02*
X128500000Y-61300000D01*
X128500000Y-61300000D02*
X128500000Y-56500000D01*
X128500000Y-56500000D02*
X127000000Y-55000000D01*
X127000000Y-55000000D02*
X127000000Y-45800000D01*
%TO.N,COL6*%
X145000000Y-62800000D02*
X146500000Y-61300000D01*
X146500000Y-61300000D02*
X146500000Y-56500000D01*
X146500000Y-56500000D02*
X145000000Y-55000000D01*
X145000000Y-55000000D02*
X145000000Y-45800000D01*
X145000000Y-79800000D02*
X146500000Y-78300000D01*
X146500000Y-78300000D02*
X146500000Y-73500000D01*
X146500000Y-73500000D02*
X145000000Y-72000000D01*
X145000000Y-72000000D02*
X145000000Y-62800000D01*
%TO.N,COL7*%
X163000000Y-96800000D02*
X164500000Y-95300000D01*
X164500000Y-95300000D02*
X164500000Y-90500000D01*
X164500000Y-90500000D02*
X163000000Y-89000000D01*
X163000000Y-89000000D02*
X163000000Y-79800000D01*
X163000000Y-79800000D02*
X164500000Y-78300000D01*
X164500000Y-78300000D02*
X164500000Y-73500000D01*
X164500000Y-73500000D02*
X163000000Y-72000000D01*
X163000000Y-72000000D02*
X163000000Y-62800000D01*
X163000000Y-62800000D02*
X164500000Y-61300000D01*
X164500000Y-61300000D02*
X164500000Y-56500000D01*
X164500000Y-56500000D02*
X163000000Y-55000000D01*
X163000000Y-55000000D02*
X163000000Y-45800000D01*
%TO.N,COL8*%
X181000000Y-96800000D02*
X182500000Y-95300000D01*
X182500000Y-95300000D02*
X182500000Y-90500000D01*
X182500000Y-90500000D02*
X181000000Y-89000000D01*
X181000000Y-89000000D02*
X181000000Y-79800000D01*
X181000000Y-79800000D02*
X182500000Y-78300000D01*
X182500000Y-78300000D02*
X182500000Y-73500000D01*
X182500000Y-73500000D02*
X181000000Y-72000000D01*
X181000000Y-72000000D02*
X181000000Y-62800000D01*
X181000000Y-62800000D02*
X182500000Y-61300000D01*
X182500000Y-61300000D02*
X182500000Y-56500000D01*
X182500000Y-56500000D02*
X181000000Y-55000000D01*
X181000000Y-55000000D02*
X181000000Y-45800000D01*
%TO.N,COL9*%
X199000000Y-96800000D02*
X200500000Y-95300000D01*
X200500000Y-95300000D02*
X200500000Y-90500000D01*
X200500000Y-90500000D02*
X199000000Y-89000000D01*
X199000000Y-89000000D02*
X199000000Y-79800000D01*
X199000000Y-79800000D02*
X200500000Y-78300000D01*
X200500000Y-78300000D02*
X200500000Y-73500000D01*
X200500000Y-73500000D02*
X199000000Y-72000000D01*
X199000000Y-72000000D02*
X199000000Y-62800000D01*
X199000000Y-62800000D02*
X200500000Y-61300000D01*
X200500000Y-61300000D02*
X200500000Y-56500000D01*
X200500000Y-56500000D02*
X199000000Y-55000000D01*
X199000000Y-55000000D02*
X199000000Y-45800000D01*
%TO.N,COL10*%
X217000000Y-96800000D02*
X218500000Y-95300000D01*
X218500000Y-95300000D02*
X218500000Y-90500000D01*
X218500000Y-90500000D02*
X217000000Y-89000000D01*
X217000000Y-89000000D02*
X217000000Y-79800000D01*
X217000000Y-79800000D02*
X218500000Y-78300000D01*
X217000000Y-62800000D02*
X218500000Y-61300000D01*
X218500000Y-61300000D02*
X218500000Y-56500000D01*
X218500000Y-56500000D02*
X217000000Y-55000000D01*
X217000000Y-55000000D02*
X217000000Y-45800000D01*
X218500000Y-78300000D02*
X218500000Y-73500000D01*
X218500000Y-73500000D02*
X217000000Y-72000000D01*
X217000000Y-72000000D02*
X217000000Y-62800000D01*
%TO.N,COL11*%
X235000000Y-62800000D02*
X236500000Y-61300000D01*
X236500000Y-61300000D02*
X236500000Y-56500000D01*
X236500000Y-56500000D02*
X235000000Y-55000000D01*
X235000000Y-55000000D02*
X235000000Y-45800000D01*
X235000000Y-79800000D02*
X236500000Y-78300000D01*
X236500000Y-78300000D02*
X236500000Y-73500000D01*
X236500000Y-73500000D02*
X235000000Y-72000000D01*
X235000000Y-72000000D02*
X235000000Y-62800000D01*
X235000000Y-96800000D02*
X236500000Y-95300000D01*
X236500000Y-95300000D02*
X236500000Y-90500000D01*
X236500000Y-90500000D02*
X235000000Y-89000000D01*
X235000000Y-89000000D02*
X235000000Y-79800000D01*
%TD*%
M02*
