%TF.GenerationSoftware,KiCad,Pcbnew,(5.1.9)-1*%
%TF.CreationDate,2021-08-06T01:24:01+02:00*%
%TF.ProjectId,rooster-pcb,726f6f73-7465-4722-9d70-63622e6b6963,rev?*%
%TF.SameCoordinates,Original*%
%TF.FileFunction,Soldermask,Top*%
%TF.FilePolarity,Negative*%
%FSLAX46Y46*%
G04 Gerber Fmt 4.6, Leading zero omitted, Abs format (unit mm)*
G04 Created by KiCad (PCBNEW (5.1.9)-1) date 2021-08-06 01:24:01*
%MOMM*%
%LPD*%
G01*
G04 APERTURE LIST*
%ADD10C,1.701800*%
%ADD11C,0.990600*%
%ADD12C,2.032000*%
%ADD13C,3.429000*%
%ADD14C,2.200000*%
%ADD15C,4.400000*%
%ADD16C,1.752600*%
%ADD17R,1.752600X1.752600*%
G04 APERTURE END LIST*
D10*
%TO.C,SW1-5*%
X126500000Y-59000000D03*
X137500000Y-59000000D03*
D11*
X137220000Y-54800000D03*
D12*
X132000000Y-64900000D03*
X127000000Y-62800000D03*
D13*
X132000000Y-59000000D03*
%TD*%
D10*
%TO.C,SW1-8*%
X180500000Y-59000000D03*
X191500000Y-59000000D03*
D11*
X191220000Y-54800000D03*
D12*
X186000000Y-64900000D03*
X181000000Y-62800000D03*
D13*
X186000000Y-59000000D03*
%TD*%
D10*
%TO.C,SW2-10*%
X216500000Y-76000000D03*
X227500000Y-76000000D03*
D11*
X227220000Y-71800000D03*
D12*
X222000000Y-81900000D03*
X217000000Y-79800000D03*
D13*
X222000000Y-76000000D03*
%TD*%
D14*
%TO.C,N4*%
X153500000Y-96500000D03*
%TD*%
%TO.C,N2*%
X153500000Y-89500000D03*
%TD*%
%TO.C,N3*%
X128500000Y-96500000D03*
%TD*%
%TO.C,N1*%
X128500000Y-89500000D03*
%TD*%
D15*
%TO.C,M7*%
X177000000Y-84500000D03*
%TD*%
%TO.C,M3*%
X177000000Y-50500000D03*
%TD*%
%TO.C,M6*%
X105000000Y-84500000D03*
%TD*%
%TO.C,M2*%
X105000000Y-50500000D03*
%TD*%
%TO.C,M9*%
X141000000Y-67500000D03*
%TD*%
%TO.C,M8*%
X231000000Y-84500000D03*
%TD*%
%TO.C,M4*%
X231000000Y-50500000D03*
%TD*%
%TO.C,M5*%
X51000000Y-84500000D03*
%TD*%
%TO.C,M1*%
X51000000Y-50500000D03*
%TD*%
D16*
%TO.C,U1*%
X85620000Y-37780000D03*
X70380000Y-65720000D03*
X85620000Y-40320000D03*
X85620000Y-42860000D03*
X85620000Y-45400000D03*
X85620000Y-47940000D03*
X85620000Y-50480000D03*
X85620000Y-53020000D03*
X85620000Y-55560000D03*
X85620000Y-58100000D03*
X85620000Y-60640000D03*
X85620000Y-63180000D03*
X85620000Y-65720000D03*
X70380000Y-63180000D03*
X70380000Y-60640000D03*
X70380000Y-58100000D03*
X70380000Y-55560000D03*
X70380000Y-53020000D03*
X70380000Y-50480000D03*
X70380000Y-47940000D03*
X70380000Y-45400000D03*
X70380000Y-42860000D03*
X70380000Y-40320000D03*
D17*
X70380000Y-37780000D03*
%TD*%
D10*
%TO.C,SW3-11*%
X234500000Y-93000000D03*
X245500000Y-93000000D03*
D11*
X245220000Y-88800000D03*
D12*
X240000000Y-98900000D03*
X235000000Y-96800000D03*
D13*
X240000000Y-93000000D03*
%TD*%
D10*
%TO.C,SW3-10*%
X216500000Y-93000000D03*
X227500000Y-93000000D03*
D11*
X227220000Y-88800000D03*
D12*
X222000000Y-98900000D03*
X217000000Y-96800000D03*
D13*
X222000000Y-93000000D03*
%TD*%
D10*
%TO.C,SW3-9*%
X198500000Y-93000000D03*
X209500000Y-93000000D03*
D11*
X209220000Y-88800000D03*
D12*
X204000000Y-98900000D03*
X199000000Y-96800000D03*
D13*
X204000000Y-93000000D03*
%TD*%
D10*
%TO.C,SW3-8*%
X180500000Y-93000000D03*
X191500000Y-93000000D03*
D11*
X191220000Y-88800000D03*
D12*
X186000000Y-98900000D03*
X181000000Y-96800000D03*
D13*
X186000000Y-93000000D03*
%TD*%
D10*
%TO.C,SW3-7*%
X162500000Y-93000000D03*
X173500000Y-93000000D03*
D11*
X173220000Y-88800000D03*
D12*
X168000000Y-98900000D03*
X163000000Y-96800000D03*
D13*
X168000000Y-93000000D03*
%TD*%
D10*
%TO.C,SW3-5*%
X135500000Y-93000000D03*
X146500000Y-93000000D03*
D11*
X146220000Y-88800000D03*
D12*
X141000000Y-98900000D03*
X136000000Y-96800000D03*
D13*
X141000000Y-93000000D03*
%TD*%
D10*
%TO.C,SW3-4*%
X108500000Y-93000000D03*
X119500000Y-93000000D03*
D11*
X119220000Y-88800000D03*
D12*
X114000000Y-98900000D03*
X109000000Y-96800000D03*
D13*
X114000000Y-93000000D03*
%TD*%
D10*
%TO.C,SW3-3*%
X90500000Y-93000000D03*
X101500000Y-93000000D03*
D11*
X101220000Y-88800000D03*
D12*
X96000000Y-98900000D03*
X91000000Y-96800000D03*
D13*
X96000000Y-93000000D03*
%TD*%
D10*
%TO.C,SW3-2*%
X72500000Y-93000000D03*
X83500000Y-93000000D03*
D11*
X83220000Y-88800000D03*
D12*
X78000000Y-98900000D03*
X73000000Y-96800000D03*
D13*
X78000000Y-93000000D03*
%TD*%
D10*
%TO.C,SW3-1*%
X54500000Y-93000000D03*
X65500000Y-93000000D03*
D11*
X65220000Y-88800000D03*
D12*
X60000000Y-98900000D03*
X55000000Y-96800000D03*
D13*
X60000000Y-93000000D03*
%TD*%
D10*
%TO.C,SW3-0*%
X36500000Y-93000000D03*
X47500000Y-93000000D03*
D11*
X47220000Y-88800000D03*
D12*
X42000000Y-98900000D03*
X37000000Y-96800000D03*
D13*
X42000000Y-93000000D03*
%TD*%
D10*
%TO.C,SW2-11*%
X234500000Y-76000000D03*
X245500000Y-76000000D03*
D11*
X245220000Y-71800000D03*
D12*
X240000000Y-81900000D03*
X235000000Y-79800000D03*
D13*
X240000000Y-76000000D03*
%TD*%
D10*
%TO.C,SW2-9*%
X198500000Y-76000000D03*
X209500000Y-76000000D03*
D11*
X209220000Y-71800000D03*
D12*
X204000000Y-81900000D03*
X199000000Y-79800000D03*
D13*
X204000000Y-76000000D03*
%TD*%
D10*
%TO.C,SW2-8*%
X180500000Y-76000000D03*
X191500000Y-76000000D03*
D11*
X191220000Y-71800000D03*
D12*
X186000000Y-81900000D03*
X181000000Y-79800000D03*
D13*
X186000000Y-76000000D03*
%TD*%
D10*
%TO.C,SW2-7*%
X162500000Y-76000000D03*
X173500000Y-76000000D03*
D11*
X173220000Y-71800000D03*
D12*
X168000000Y-81900000D03*
X163000000Y-79800000D03*
D13*
X168000000Y-76000000D03*
%TD*%
D10*
%TO.C,SW2-6*%
X144500000Y-76000000D03*
X155500000Y-76000000D03*
D11*
X155220000Y-71800000D03*
D12*
X150000000Y-81900000D03*
X145000000Y-79800000D03*
D13*
X150000000Y-76000000D03*
%TD*%
D10*
%TO.C,SW2-5*%
X126500000Y-76000000D03*
X137500000Y-76000000D03*
D11*
X137220000Y-71800000D03*
D12*
X132000000Y-81900000D03*
X127000000Y-79800000D03*
D13*
X132000000Y-76000000D03*
%TD*%
D10*
%TO.C,SW2-4*%
X108500000Y-76000000D03*
X119500000Y-76000000D03*
D11*
X119220000Y-71800000D03*
D12*
X114000000Y-81900000D03*
X109000000Y-79800000D03*
D13*
X114000000Y-76000000D03*
%TD*%
D10*
%TO.C,SW2-3*%
X90500000Y-76000000D03*
X101500000Y-76000000D03*
D11*
X101220000Y-71800000D03*
D12*
X96000000Y-81900000D03*
X91000000Y-79800000D03*
D13*
X96000000Y-76000000D03*
%TD*%
D10*
%TO.C,SW2-2*%
X72500000Y-76000000D03*
X83500000Y-76000000D03*
D11*
X83220000Y-71800000D03*
D12*
X78000000Y-81900000D03*
X73000000Y-79800000D03*
D13*
X78000000Y-76000000D03*
%TD*%
D10*
%TO.C,SW2-1*%
X54500000Y-76000000D03*
X65500000Y-76000000D03*
D11*
X65220000Y-71800000D03*
D12*
X60000000Y-81900000D03*
X55000000Y-79800000D03*
D13*
X60000000Y-76000000D03*
%TD*%
D10*
%TO.C,SW2-0*%
X36500000Y-76000000D03*
X47500000Y-76000000D03*
D11*
X47220000Y-71800000D03*
D12*
X42000000Y-81900000D03*
X37000000Y-79800000D03*
D13*
X42000000Y-76000000D03*
%TD*%
D10*
%TO.C,SW1-11*%
X234500000Y-59000000D03*
X245500000Y-59000000D03*
D11*
X245220000Y-54800000D03*
D12*
X240000000Y-64900000D03*
X235000000Y-62800000D03*
D13*
X240000000Y-59000000D03*
%TD*%
D10*
%TO.C,SW1-10*%
X216500000Y-59000000D03*
X227500000Y-59000000D03*
D11*
X227220000Y-54800000D03*
D12*
X222000000Y-64900000D03*
X217000000Y-62800000D03*
D13*
X222000000Y-59000000D03*
%TD*%
D10*
%TO.C,SW1-9*%
X198500000Y-59000000D03*
X209500000Y-59000000D03*
D11*
X209220000Y-54800000D03*
D12*
X204000000Y-64900000D03*
X199000000Y-62800000D03*
D13*
X204000000Y-59000000D03*
%TD*%
D10*
%TO.C,SW1-7*%
X162500000Y-59000000D03*
X173500000Y-59000000D03*
D11*
X173220000Y-54800000D03*
D12*
X168000000Y-64900000D03*
X163000000Y-62800000D03*
D13*
X168000000Y-59000000D03*
%TD*%
D10*
%TO.C,SW1-6*%
X144500000Y-59000000D03*
X155500000Y-59000000D03*
D11*
X155220000Y-54800000D03*
D12*
X150000000Y-64900000D03*
X145000000Y-62800000D03*
D13*
X150000000Y-59000000D03*
%TD*%
D10*
%TO.C,SW1-4*%
X108500000Y-59000000D03*
X119500000Y-59000000D03*
D11*
X119220000Y-54800000D03*
D12*
X114000000Y-64900000D03*
X109000000Y-62800000D03*
D13*
X114000000Y-59000000D03*
%TD*%
D10*
%TO.C,SW1-3*%
X90500000Y-59000000D03*
X101500000Y-59000000D03*
D11*
X101220000Y-54800000D03*
D12*
X96000000Y-64900000D03*
X91000000Y-62800000D03*
D13*
X96000000Y-59000000D03*
%TD*%
D10*
%TO.C,SW1-2*%
X72500000Y-59000000D03*
X83500000Y-59000000D03*
D11*
X83220000Y-54800000D03*
D12*
X78000000Y-64900000D03*
X73000000Y-62800000D03*
D13*
X78000000Y-59000000D03*
%TD*%
D10*
%TO.C,SW1-1*%
X54500000Y-59000000D03*
X65500000Y-59000000D03*
D11*
X65220000Y-54800000D03*
D12*
X60000000Y-64900000D03*
X55000000Y-62800000D03*
D13*
X60000000Y-59000000D03*
%TD*%
D10*
%TO.C,SW1-0*%
X36500000Y-59000000D03*
X47500000Y-59000000D03*
D11*
X47220000Y-54800000D03*
D12*
X42000000Y-64900000D03*
X37000000Y-62800000D03*
D13*
X42000000Y-59000000D03*
%TD*%
D10*
%TO.C,SW0-11*%
X234500000Y-42000000D03*
X245500000Y-42000000D03*
D11*
X245220000Y-37800000D03*
D12*
X240000000Y-47900000D03*
X235000000Y-45800000D03*
D13*
X240000000Y-42000000D03*
%TD*%
D10*
%TO.C,SW0-10*%
X216500000Y-42000000D03*
X227500000Y-42000000D03*
D11*
X227220000Y-37800000D03*
D12*
X222000000Y-47900000D03*
X217000000Y-45800000D03*
D13*
X222000000Y-42000000D03*
%TD*%
D10*
%TO.C,SW0-9*%
X198500000Y-42000000D03*
X209500000Y-42000000D03*
D11*
X209220000Y-37800000D03*
D12*
X204000000Y-47900000D03*
X199000000Y-45800000D03*
D13*
X204000000Y-42000000D03*
%TD*%
D10*
%TO.C,SW0-8*%
X180500000Y-42000000D03*
X191500000Y-42000000D03*
D11*
X191220000Y-37800000D03*
D12*
X186000000Y-47900000D03*
X181000000Y-45800000D03*
D13*
X186000000Y-42000000D03*
%TD*%
D10*
%TO.C,SW0-7*%
X162500000Y-42000000D03*
X173500000Y-42000000D03*
D11*
X173220000Y-37800000D03*
D12*
X168000000Y-47900000D03*
X163000000Y-45800000D03*
D13*
X168000000Y-42000000D03*
%TD*%
D10*
%TO.C,SW0-6*%
X144500000Y-42000000D03*
X155500000Y-42000000D03*
D11*
X155220000Y-37800000D03*
D12*
X150000000Y-47900000D03*
X145000000Y-45800000D03*
D13*
X150000000Y-42000000D03*
%TD*%
D10*
%TO.C,SW0-5*%
X126500000Y-42000000D03*
X137500000Y-42000000D03*
D11*
X137220000Y-37800000D03*
D12*
X132000000Y-47900000D03*
X127000000Y-45800000D03*
D13*
X132000000Y-42000000D03*
%TD*%
D10*
%TO.C,SW0-4*%
X108500000Y-42000000D03*
X119500000Y-42000000D03*
D11*
X119220000Y-37800000D03*
D12*
X114000000Y-47900000D03*
X109000000Y-45800000D03*
D13*
X114000000Y-42000000D03*
%TD*%
%TO.C,SW0-3*%
X96000000Y-42000000D03*
D12*
X91000000Y-45800000D03*
X96000000Y-47900000D03*
D11*
X101220000Y-37800000D03*
D10*
X101500000Y-42000000D03*
X90500000Y-42000000D03*
%TD*%
%TO.C,SW0-2*%
X72500000Y-42000000D03*
X83500000Y-42000000D03*
D11*
X83220000Y-37800000D03*
D12*
X78000000Y-47900000D03*
X73000000Y-45800000D03*
D13*
X78000000Y-42000000D03*
%TD*%
D10*
%TO.C,SW0-1*%
X54500000Y-42000000D03*
X65500000Y-42000000D03*
D11*
X65220000Y-37800000D03*
D12*
X60000000Y-47900000D03*
X55000000Y-45800000D03*
D13*
X60000000Y-42000000D03*
%TD*%
D10*
%TO.C,SW0-0*%
X36500000Y-42000000D03*
X47500000Y-42000000D03*
D11*
X47220000Y-37800000D03*
D12*
X42000000Y-47900000D03*
X37000000Y-45800000D03*
D13*
X42000000Y-42000000D03*
%TD*%
M02*
